<?xml version="1.0" encoding="us-ascii" standalone="no"?><svg xmlns="http://www.w3.org/2000/svg" xmlns:xlink="http://www.w3.org/1999/xlink" contentStyleType="text/css" height="1541px" preserveAspectRatio="none" style="width:3919px;height:1541px;background:#FFFFFF;" version="1.1" viewBox="0 0 3919 1541" width="3919px" zoomAndPan="magnify"><defs/><g><text fill="#000000" font-family="sans-serif" font-size="14" font-weight="bold" lengthAdjust="spacing" textLength="381.4375" x="1761.7813" y="24.5332">Diagrama de Classes &#8212; Simulador de Rede de Energia</text><!--cluster Inicializa??o--><g id="cluster_Inicializa&#231;&#227;o"><path d="M3405.5,44.6094 L3491.5,44.6094 A3.75,3.75 0 0 1 3494,47.1094 L3501,68.2188 L3608.5,68.2188 A2.5,2.5 0 0 1 3611,70.7188 L3611,152.1094 A2.5,2.5 0 0 1 3608.5,154.6094 L3405.5,154.6094 A2.5,2.5 0 0 1 3403,152.1094 L3403,47.1094 A2.5,2.5 0 0 1 3405.5,44.6094 " fill="#FFF2CC" style="stroke:#000000;stroke-width:1.5;"/><line style="stroke:#000000;stroke-width:1.5;" x1="3403" x2="3501" y1="68.2188" y2="68.2188"/><text fill="#000000" font-family="sans-serif" font-size="14" font-weight="bold" lengthAdjust="spacing" textLength="85" x="3407" y="61.1426">Inicializa&#231;&#227;o</text></g><!--cluster estruturaGrafo--><g id="cluster_estruturaGrafo"><path d="M330.5,786.6094 L435.5,786.6094 A3.75,3.75 0 0 1 438,789.1094 L445,810.2188 L1023.5,810.2188 A2.5,2.5 0 0 1 1026,812.7188 L1026,1532.1094 A2.5,2.5 0 0 1 1023.5,1534.6094 L330.5,1534.6094 A2.5,2.5 0 0 1 328,1532.1094 L328,789.1094 A2.5,2.5 0 0 1 330.5,786.6094 " fill="#D9EAF7" style="stroke:#000000;stroke-width:1.5;"/><line style="stroke:#000000;stroke-width:1.5;" x1="328" x2="445" y1="810.2188" y2="810.2188"/><text fill="#000000" font-family="sans-serif" font-size="14" font-weight="bold" lengthAdjust="spacing" textLength="104" x="332" y="803.1426">estruturaGrafo</text></g><!--cluster algoritmos--><g id="cluster_algoritmos"><path d="M1052.5,874.6094 L1127.5,874.6094 A3.75,3.75 0 0 1 1130,877.1094 L1137,898.2188 L3295.5,898.2188 A2.5,2.5 0 0 1 3298,900.7188 L3298,1344.1094 A2.5,2.5 0 0 1 3295.5,1346.6094 L1052.5,1346.6094 A2.5,2.5 0 0 1 1050,1344.1094 L1050,877.1094 A2.5,2.5 0 0 1 1052.5,874.6094 " fill="#E2F0D9" style="stroke:#000000;stroke-width:1.5;"/><line style="stroke:#000000;stroke-width:1.5;" x1="1050" x2="1137" y1="898.2188" y2="898.2188"/><text fill="#000000" font-family="sans-serif" font-size="14" font-weight="bold" lengthAdjust="spacing" textLength="74" x="1054" y="891.1426">algoritmos</text></g><!--cluster visualizacao--><g id="cluster_visualizacao"><path d="M3324.5,178.6094 L3411.5,178.6094 A3.75,3.75 0 0 1 3414,181.1094 L3421,202.2188 L3909.5,202.2188 A2.5,2.5 0 0 1 3912,204.7188 L3912,1532.1094 A2.5,2.5 0 0 1 3909.5,1534.6094 L3324.5,1534.6094 A2.5,2.5 0 0 1 3322,1532.1094 L3322,181.1094 A2.5,2.5 0 0 1 3324.5,178.6094 " fill="#FCE4D6" style="stroke:#000000;stroke-width:1.5;"/><line style="stroke:#000000;stroke-width:1.5;" x1="3322" x2="3421" y1="202.2188" y2="202.2188"/><text fill="#000000" font-family="sans-serif" font-size="14" font-weight="bold" lengthAdjust="spacing" textLength="86" x="3326" y="195.1426">visualizacao</text></g><!--class App--><g id="elem_App"><rect codeLine="14" fill="#F1F1F1" height="57.6094" id="App" rx="2.5" ry="2.5" style="stroke:#181818;stroke-width:0.5;" width="175" x="3419.5" y="80.6094"/><ellipse cx="3490.25" cy="96.6094" fill="#ADD1B2" rx="11" ry="11" style="stroke:#181818;stroke-width:1.0;"/><path d="M3493.0156,92.4844 Q3493.1719,92.2656 3493.3594,92.1563 Q3493.5469,92.0469 3493.7656,92.0469 Q3494.1406,92.0469 3494.375,92.3125 Q3494.6094,92.5625 3494.6094,93.1719 L3494.6094,94.625 Q3494.6094,95.2344 3494.375,95.5 Q3494.1406,95.7656 3493.7656,95.7656 Q3493.4219,95.7656 3493.2188,95.5625 Q3493.0156,95.375 3492.9063,94.8594 Q3492.8594,94.5 3492.6719,94.3125 Q3492.3438,93.9375 3491.7344,93.7188 Q3491.125,93.5 3490.5,93.5 Q3489.7344,93.5 3489.0938,93.8281 Q3488.4688,94.1563 3487.9688,94.9063 Q3487.4844,95.6563 3487.4844,96.6875 L3487.4844,97.7813 Q3487.4844,99.0156 3488.375,99.8438 Q3489.2656,100.6563 3490.8594,100.6563 Q3491.7969,100.6563 3492.4531,100.4063 Q3492.8438,100.25 3493.2656,99.8125 Q3493.5313,99.5469 3493.6719,99.4688 Q3493.8281,99.3906 3494.0313,99.3906 Q3494.3594,99.3906 3494.6094,99.6563 Q3494.875,99.9063 3494.875,100.25 Q3494.875,100.5938 3494.5313,101 Q3494.0313,101.5781 3493.2344,101.9063 Q3492.1563,102.3594 3490.8594,102.3594 Q3489.3438,102.3594 3488.1406,101.7344 Q3487.1563,101.2344 3486.4688,100.1719 Q3485.7813,99.0938 3485.7813,97.8125 L3485.7813,96.6563 Q3485.7813,95.3281 3486.3906,94.1875 Q3487.0156,93.0313 3488.1094,92.4219 Q3489.2031,91.7969 3490.4375,91.7969 Q3491.1719,91.7969 3491.8125,91.9688 Q3492.4688,92.125 3493.0156,92.4844 Z " fill="#000000"/><text fill="#000000" font-family="sans-serif" font-size="14" lengthAdjust="spacing" textLength="25" x="3510.75" y="102.3379">App</text><line style="stroke:#181818;stroke-width:0.5;" x1="3420.5" x2="3593.5" y1="112.6094" y2="112.6094"/><text fill="#000000" font-family="sans-serif" font-size="14" lengthAdjust="spacing" textLength="163" x="3425.5" y="131.1426">+main(args: String[]): void</text></g><!--class Grafo--><g id="elem_Grafo"><rect codeLine="20" fill="#F1F1F1" height="312.1406" id="Grafo" rx="2.5" ry="2.5" style="stroke:#181818;stroke-width:0.5;" width="383" x="626.5" y="822.6094"/><ellipse cx="779.75" cy="838.6094" fill="#ADD1B2" rx="11" ry="11" style="stroke:#181818;stroke-width:1.0;"/><path d="M782.5156,834.4844 Q782.6719,834.2656 782.8594,834.1563 Q783.0469,834.0469 783.2656,834.0469 Q783.6406,834.0469 783.875,834.3125 Q784.1094,834.5625 784.1094,835.1719 L784.1094,836.625 Q784.1094,837.2344 783.875,837.5 Q783.6406,837.7656 783.2656,837.7656 Q782.9219,837.7656 782.7188,837.5625 Q782.5156,837.375 782.4063,836.8594 Q782.3594,836.5 782.1719,836.3125 Q781.8438,835.9375 781.2344,835.7188 Q780.625,835.5 780,835.5 Q779.2344,835.5 778.5938,835.8281 Q777.9688,836.1563 777.4688,836.9063 Q776.9844,837.6563 776.9844,838.6875 L776.9844,839.7813 Q776.9844,841.0156 777.875,841.8438 Q778.7656,842.6563 780.3594,842.6563 Q781.2969,842.6563 781.9531,842.4063 Q782.3438,842.25 782.7656,841.8125 Q783.0313,841.5469 783.1719,841.4688 Q783.3281,841.3906 783.5313,841.3906 Q783.8594,841.3906 784.1094,841.6563 Q784.375,841.9063 784.375,842.25 Q784.375,842.5938 784.0313,843 Q783.5313,843.5781 782.7344,843.9063 Q781.6563,844.3594 780.3594,844.3594 Q778.8438,844.3594 777.6406,843.7344 Q776.6563,843.2344 775.9688,842.1719 Q775.2813,841.0938 775.2813,839.8125 L775.2813,838.6563 Q775.2813,837.3281 775.8906,836.1875 Q776.5156,835.0313 777.6094,834.4219 Q778.7031,833.7969 779.9375,833.7969 Q780.6719,833.7969 781.3125,833.9688 Q781.9688,834.125 782.5156,834.4844 Z " fill="#000000"/><text fill="#000000" font-family="sans-serif" font-size="14" lengthAdjust="spacing" textLength="36" x="800.25" y="844.3379">Grafo</text><rect fill="#FFFFFF" height="17.0938" style="stroke:#181818;stroke-width:1.0;stroke-dasharray:2.0,2.0;" width="30" x="982.5" y="819.6094"/><text fill="#000000" font-family="sans-serif" font-size="12" font-style="italic" lengthAdjust="spacing" textLength="28" x="983.5" y="833.0664">TIPO</text><line style="stroke:#181818;stroke-width:0.5;" x1="627.5" x2="1008.5" y1="854.6094" y2="854.6094"/><text fill="#000000" font-family="sans-serif" font-size="14" lengthAdjust="spacing" textLength="230" x="632.5" y="873.1426">-vertice: Map&lt;TIPO, Vertice&lt;TIPO&gt;&gt;</text><text fill="#000000" font-family="sans-serif" font-size="14" lengthAdjust="spacing" textLength="214" x="632.5" y="890.752">-aresta: ArrayList&lt;Aresta&lt;TIPO&gt;&gt;</text><text fill="#000000" font-family="sans-serif" font-size="14" lengthAdjust="spacing" textLength="131" x="632.5" y="908.3613">-fontePrincipal: TIPO</text><text fill="#000000" font-family="sans-serif" font-size="14" lengthAdjust="spacing" textLength="196" x="632.5" y="925.9707">-ultimoVerticeAdicionado: TIPO</text><line style="stroke:#181818;stroke-width:0.5;" x1="627.5" x2="1008.5" y1="933.0469" y2="933.0469"/><text fill="#000000" font-family="sans-serif" font-size="14" lengthAdjust="spacing" textLength="171" x="632.5" y="951.5801">+addVertice(id: TIPO): void</text><text fill="#000000" font-family="sans-serif" font-size="14" lengthAdjust="spacing" textLength="230" x="632.5" y="969.1895">+addVerticeAutoConectado(...): void</text><text fill="#000000" font-family="sans-serif" font-size="14" lengthAdjust="spacing" textLength="371" x="632.5" y="986.7988">+addAresta(origem: TIPO, destino: TIPO, lambda: int): void</text><text fill="#000000" font-family="sans-serif" font-size="14" lengthAdjust="spacing" textLength="199" x="632.5" y="1004.4082">+removerVertice(id: TIPO): void</text><text fill="#000000" font-family="sans-serif" font-size="14" lengthAdjust="spacing" textLength="286" x="632.5" y="1022.0176">+setPosteAtivo(id: TIPO, ativo: boolean): void</text><text fill="#000000" font-family="sans-serif" font-size="14" lengthAdjust="spacing" textLength="187" x="632.5" y="1039.627">+bfs(inicio: TIPO): List&lt;TIPO&gt;</text><text fill="#000000" font-family="sans-serif" font-size="14" lengthAdjust="spacing" textLength="187" x="632.5" y="1057.2363">+dfs(inicio: TIPO): List&lt;TIPO&gt;</text><text fill="#000000" font-family="sans-serif" font-size="14" lengthAdjust="spacing" textLength="279" x="632.5" y="1074.8457">+AGM(original: Grafo&lt;TIPO&gt;): Grafo&lt;TIPO&gt;</text><text fill="#000000" font-family="sans-serif" font-size="14" lengthAdjust="spacing" textLength="294" x="632.5" y="1092.4551">+fluxoMaximo(origem: TIPO, destino: TIPO): int</text><text fill="#000000" font-family="sans-serif" font-size="14" lengthAdjust="spacing" textLength="258" x="632.5" y="1110.0645">+encontrarPontes(): List&lt;Aresta&lt;TIPO&gt;&gt;</text><text fill="#000000" font-family="sans-serif" font-size="14" lengthAdjust="spacing" textLength="228" x="632.5" y="1127.6738">+caminhoAlternativo(...): List&lt;TIPO&gt;</text></g><!--class Nodo--><g id="elem_Nodo"><rect codeLine="38" fill="#F1F1F1" height="153.6563" id="Nodo" rx="2.5" ry="2.5" style="stroke:#181818;stroke-width:0.5;" width="203" x="530.5" y="1203.1094"/><ellipse cx="595.25" cy="1219.1094" fill="#ADD1B2" rx="11" ry="11" style="stroke:#181818;stroke-width:1.0;"/><path d="M598.0156,1214.9844 Q598.1719,1214.7656 598.3594,1214.6563 Q598.5469,1214.5469 598.7656,1214.5469 Q599.1406,1214.5469 599.375,1214.8125 Q599.6094,1215.0625 599.6094,1215.6719 L599.6094,1217.125 Q599.6094,1217.7344 599.375,1218 Q599.1406,1218.2656 598.7656,1218.2656 Q598.4219,1218.2656 598.2188,1218.0625 Q598.0156,1217.875 597.9063,1217.3594 Q597.8594,1217 597.6719,1216.8125 Q597.3438,1216.4375 596.7344,1216.2188 Q596.125,1216 595.5,1216 Q594.7344,1216 594.0938,1216.3281 Q593.4688,1216.6563 592.9688,1217.4063 Q592.4844,1218.1563 592.4844,1219.1875 L592.4844,1220.2813 Q592.4844,1221.5156 593.375,1222.3438 Q594.2656,1223.1563 595.8594,1223.1563 Q596.7969,1223.1563 597.4531,1222.9063 Q597.8438,1222.75 598.2656,1222.3125 Q598.5313,1222.0469 598.6719,1221.9688 Q598.8281,1221.8906 599.0313,1221.8906 Q599.3594,1221.8906 599.6094,1222.1563 Q599.875,1222.4063 599.875,1222.75 Q599.875,1223.0938 599.5313,1223.5 Q599.0313,1224.0781 598.2344,1224.4063 Q597.1563,1224.8594 595.8594,1224.8594 Q594.3438,1224.8594 593.1406,1224.2344 Q592.1563,1223.7344 591.4688,1222.6719 Q590.7813,1221.5938 590.7813,1220.3125 L590.7813,1219.1563 Q590.7813,1217.8281 591.3906,1216.6875 Q592.0156,1215.5313 593.1094,1214.9219 Q594.2031,1214.2969 595.4375,1214.2969 Q596.1719,1214.2969 596.8125,1214.4688 Q597.4688,1214.625 598.0156,1214.9844 Z " fill="#000000"/><text fill="#000000" font-family="sans-serif" font-size="14" lengthAdjust="spacing" textLength="33" x="615.75" y="1224.8379">Nodo</text><rect fill="#FFFFFF" height="17.0938" style="stroke:#181818;stroke-width:1.0;stroke-dasharray:2.0,2.0;" width="30" x="706.5" y="1200.1094"/><text fill="#000000" font-family="sans-serif" font-size="12" font-style="italic" lengthAdjust="spacing" textLength="28" x="707.5" y="1213.5664">TIPO</text><line style="stroke:#181818;stroke-width:0.5;" x1="531.5" x2="732.5" y1="1235.1094" y2="1235.1094"/><text fill="#000000" font-family="sans-serif" font-size="14" lengthAdjust="spacing" textLength="80" x="536.5" y="1253.6426">-nome: TIPO</text><text fill="#000000" font-family="sans-serif" font-size="14" lengthAdjust="spacing" textLength="154" x="536.5" y="1271.252">-esquerda: Nodo&lt;TIPO&gt;</text><text fill="#000000" font-family="sans-serif" font-size="14" lengthAdjust="spacing" textLength="133" x="536.5" y="1288.8613">-direita: Nodo&lt;TIPO&gt;</text><text fill="#000000" font-family="sans-serif" font-size="14" lengthAdjust="spacing" textLength="94" x="536.5" y="1306.4707">-ativo: boolean</text><line style="stroke:#181818;stroke-width:0.5;" x1="531.5" x2="732.5" y1="1313.5469" y2="1313.5469"/><text fill="#000000" font-family="sans-serif" font-size="14" lengthAdjust="spacing" textLength="128" x="536.5" y="1332.0801">+getAtivo(): boolean</text><text fill="#000000" font-family="sans-serif" font-size="14" lengthAdjust="spacing" textLength="191" x="536.5" y="1349.6895">+setAtivo(ativo: boolean): void</text></g><!--class Vertice--><g id="elem_Vertice"><rect codeLine="47" fill="#F1F1F1" height="92.8281" id="Vertice" rx="2.5" ry="2.5" style="stroke:#181818;stroke-width:0.5;" width="246" x="764" y="1425.6094"/><ellipse cx="844.75" cy="1441.6094" fill="#ADD1B2" rx="11" ry="11" style="stroke:#181818;stroke-width:1.0;"/><path d="M847.5156,1437.4844 Q847.6719,1437.2656 847.8594,1437.1563 Q848.0469,1437.0469 848.2656,1437.0469 Q848.6406,1437.0469 848.875,1437.3125 Q849.1094,1437.5625 849.1094,1438.1719 L849.1094,1439.625 Q849.1094,1440.2344 848.875,1440.5 Q848.6406,1440.7656 848.2656,1440.7656 Q847.9219,1440.7656 847.7188,1440.5625 Q847.5156,1440.375 847.4063,1439.8594 Q847.3594,1439.5 847.1719,1439.3125 Q846.8438,1438.9375 846.2344,1438.7188 Q845.625,1438.5 845,1438.5 Q844.2344,1438.5 843.5938,1438.8281 Q842.9688,1439.1563 842.4688,1439.9063 Q841.9844,1440.6563 841.9844,1441.6875 L841.9844,1442.7813 Q841.9844,1444.0156 842.875,1444.8438 Q843.7656,1445.6563 845.3594,1445.6563 Q846.2969,1445.6563 846.9531,1445.4063 Q847.3438,1445.25 847.7656,1444.8125 Q848.0313,1444.5469 848.1719,1444.4688 Q848.3281,1444.3906 848.5313,1444.3906 Q848.8594,1444.3906 849.1094,1444.6563 Q849.375,1444.9063 849.375,1445.25 Q849.375,1445.5938 849.0313,1446 Q848.5313,1446.5781 847.7344,1446.9063 Q846.6563,1447.3594 845.3594,1447.3594 Q843.8438,1447.3594 842.6406,1446.7344 Q841.6563,1446.2344 840.9688,1445.1719 Q840.2813,1444.0938 840.2813,1442.8125 L840.2813,1441.6563 Q840.2813,1440.3281 840.8906,1439.1875 Q841.5156,1438.0313 842.6094,1437.4219 Q843.7031,1436.7969 844.9375,1436.7969 Q845.6719,1436.7969 846.3125,1436.9688 Q846.9688,1437.125 847.5156,1437.4844 Z " fill="#000000"/><text fill="#000000" font-family="sans-serif" font-size="14" lengthAdjust="spacing" textLength="44" x="865.25" y="1447.3379">Vertice</text><rect fill="#FFFFFF" height="17.0938" style="stroke:#181818;stroke-width:1.0;stroke-dasharray:2.0,2.0;" width="30" x="983" y="1422.6094"/><text fill="#000000" font-family="sans-serif" font-size="12" font-style="italic" lengthAdjust="spacing" textLength="28" x="984" y="1436.0664">TIPO</text><line style="stroke:#181818;stroke-width:0.5;" x1="765" x2="1009" y1="1457.6094" y2="1457.6094"/><text fill="#000000" font-family="sans-serif" font-size="14" lengthAdjust="spacing" textLength="151" x="770" y="1476.1426">+add(nome: TIPO): void</text><text fill="#000000" font-family="sans-serif" font-size="14" lengthAdjust="spacing" textLength="226" x="770" y="1493.752">+printInsert(raiz: Nodo&lt;TIPO&gt;): void</text><text fill="#000000" font-family="sans-serif" font-size="14" lengthAdjust="spacing" textLength="234" x="770" y="1511.3613">+printOrdem(raiz: Nodo&lt;TIPO&gt;): void</text></g><!--class Aresta--><g id="elem_Aresta"><rect codeLine="53" fill="#F1F1F1" height="171.2656" id="Aresta" rx="2.5" ry="2.5" style="stroke:#181818;stroke-width:0.5;" width="203" x="806.5" y="1194.6094"/><ellipse cx="867.25" cy="1210.6094" fill="#ADD1B2" rx="11" ry="11" style="stroke:#181818;stroke-width:1.0;"/><path d="M870.0156,1206.4844 Q870.1719,1206.2656 870.3594,1206.1563 Q870.5469,1206.0469 870.7656,1206.0469 Q871.1406,1206.0469 871.375,1206.3125 Q871.6094,1206.5625 871.6094,1207.1719 L871.6094,1208.625 Q871.6094,1209.2344 871.375,1209.5 Q871.1406,1209.7656 870.7656,1209.7656 Q870.4219,1209.7656 870.2188,1209.5625 Q870.0156,1209.375 869.9063,1208.8594 Q869.8594,1208.5 869.6719,1208.3125 Q869.3438,1207.9375 868.7344,1207.7188 Q868.125,1207.5 867.5,1207.5 Q866.7344,1207.5 866.0938,1207.8281 Q865.4688,1208.1563 864.9688,1208.9063 Q864.4844,1209.6563 864.4844,1210.6875 L864.4844,1211.7813 Q864.4844,1213.0156 865.375,1213.8438 Q866.2656,1214.6563 867.8594,1214.6563 Q868.7969,1214.6563 869.4531,1214.4063 Q869.8438,1214.25 870.2656,1213.8125 Q870.5313,1213.5469 870.6719,1213.4688 Q870.8281,1213.3906 871.0313,1213.3906 Q871.3594,1213.3906 871.6094,1213.6563 Q871.875,1213.9063 871.875,1214.25 Q871.875,1214.5938 871.5313,1215 Q871.0313,1215.5781 870.2344,1215.9063 Q869.1563,1216.3594 867.8594,1216.3594 Q866.3438,1216.3594 865.1406,1215.7344 Q864.1563,1215.2344 863.4688,1214.1719 Q862.7813,1213.0938 862.7813,1211.8125 L862.7813,1210.6563 Q862.7813,1209.3281 863.3906,1208.1875 Q864.0156,1207.0313 865.1094,1206.4219 Q866.2031,1205.7969 867.4375,1205.7969 Q868.1719,1205.7969 868.8125,1205.9688 Q869.4688,1206.125 870.0156,1206.4844 Z " fill="#000000"/><text fill="#000000" font-family="sans-serif" font-size="14" lengthAdjust="spacing" textLength="41" x="887.75" y="1216.3379">Aresta</text><rect fill="#FFFFFF" height="17.0938" style="stroke:#181818;stroke-width:1.0;stroke-dasharray:2.0,2.0;" width="30" x="982.5" y="1191.6094"/><text fill="#000000" font-family="sans-serif" font-size="12" font-style="italic" lengthAdjust="spacing" textLength="28" x="983.5" y="1205.0664">TIPO</text><line style="stroke:#181818;stroke-width:0.5;" x1="807.5" x2="1008.5" y1="1226.6094" y2="1226.6094"/><text fill="#000000" font-family="sans-serif" font-size="14" lengthAdjust="spacing" textLength="113" x="812.5" y="1245.1426">-u: Vertice&lt;TIPO&gt;</text><text fill="#000000" font-family="sans-serif" font-size="14" lengthAdjust="spacing" textLength="112" x="812.5" y="1262.752">-v: Vertice&lt;TIPO&gt;</text><text fill="#000000" font-family="sans-serif" font-size="14" lengthAdjust="spacing" textLength="74" x="812.5" y="1280.3613">-lambda: int</text><text fill="#000000" font-family="sans-serif" font-size="14" lengthAdjust="spacing" textLength="94" x="812.5" y="1297.9707">-ativo: boolean</text><line style="stroke:#181818;stroke-width:0.5;" x1="807.5" x2="1008.5" y1="1305.0469" y2="1305.0469"/><text fill="#000000" font-family="sans-serif" font-size="14" lengthAdjust="spacing" textLength="112" x="812.5" y="1323.5801">+getLambda(): int</text><text fill="#000000" font-family="sans-serif" font-size="14" lengthAdjust="spacing" textLength="128" x="812.5" y="1341.1895">+getAtivo(): boolean</text><text fill="#000000" font-family="sans-serif" font-size="14" lengthAdjust="spacing" textLength="191" x="812.5" y="1358.7988">+setAtivo(ativo: boolean): void</text></g><!--class ConjuntoDisjunto--><g id="elem_ConjuntoDisjunto"><rect codeLine="63" fill="#F1F1F1" height="136.0469" id="ConjuntoDisjunto" rx="2.5" ry="2.5" style="stroke:#181818;stroke-width:0.5;" width="247" x="344.5" y="910.6094"/><ellipse cx="393.75" cy="926.6094" fill="#ADD1B2" rx="11" ry="11" style="stroke:#181818;stroke-width:1.0;"/><path d="M396.5156,922.4844 Q396.6719,922.2656 396.8594,922.1563 Q397.0469,922.0469 397.2656,922.0469 Q397.6406,922.0469 397.875,922.3125 Q398.1094,922.5625 398.1094,923.1719 L398.1094,924.625 Q398.1094,925.2344 397.875,925.5 Q397.6406,925.7656 397.2656,925.7656 Q396.9219,925.7656 396.7188,925.5625 Q396.5156,925.375 396.4063,924.8594 Q396.3594,924.5 396.1719,924.3125 Q395.8438,923.9375 395.2344,923.7188 Q394.625,923.5 394,923.5 Q393.2344,923.5 392.5938,923.8281 Q391.9688,924.1563 391.4688,924.9063 Q390.9844,925.6563 390.9844,926.6875 L390.9844,927.7813 Q390.9844,929.0156 391.875,929.8438 Q392.7656,930.6563 394.3594,930.6563 Q395.2969,930.6563 395.9531,930.4063 Q396.3438,930.25 396.7656,929.8125 Q397.0313,929.5469 397.1719,929.4688 Q397.3281,929.3906 397.5313,929.3906 Q397.8594,929.3906 398.1094,929.6563 Q398.375,929.9063 398.375,930.25 Q398.375,930.5938 398.0313,931 Q397.5313,931.5781 396.7344,931.9063 Q395.6563,932.3594 394.3594,932.3594 Q392.8438,932.3594 391.6406,931.7344 Q390.6563,931.2344 389.9688,930.1719 Q389.2813,929.0938 389.2813,927.8125 L389.2813,926.6563 Q389.2813,925.3281 389.8906,924.1875 Q390.5156,923.0313 391.6094,922.4219 Q392.7031,921.7969 393.9375,921.7969 Q394.6719,921.7969 395.3125,921.9688 Q395.9688,922.125 396.5156,922.4844 Z " fill="#000000"/><text fill="#000000" font-family="sans-serif" font-size="14" lengthAdjust="spacing" textLength="108" x="414.25" y="932.3379">ConjuntoDisjunto</text><rect fill="#FFFFFF" height="17.0938" style="stroke:#181818;stroke-width:1.0;stroke-dasharray:2.0,2.0;" width="30" x="564.5" y="907.6094"/><text fill="#000000" font-family="sans-serif" font-size="12" font-style="italic" lengthAdjust="spacing" textLength="28" x="565.5" y="921.0664">TIPO</text><line style="stroke:#181818;stroke-width:0.5;" x1="345.5" x2="590.5" y1="942.6094" y2="942.6094"/><text fill="#000000" font-family="sans-serif" font-size="14" lengthAdjust="spacing" textLength="147" x="350.5" y="961.1426">-pai: Map&lt;TIPO, TIPO&gt;</text><text fill="#000000" font-family="sans-serif" font-size="14" lengthAdjust="spacing" textLength="168" x="350.5" y="978.752">-rank: Map&lt;TIPO, Integer&gt;</text><line style="stroke:#181818;stroke-width:0.5;" x1="345.5" x2="590.5" y1="985.8281" y2="985.8281"/><text fill="#000000" font-family="sans-serif" font-size="14" lengthAdjust="spacing" textLength="235" x="350.5" y="1004.3613">+criarConjunto(elemento: TIPO): void</text><text fill="#000000" font-family="sans-serif" font-size="14" lengthAdjust="spacing" textLength="217" x="350.5" y="1021.9707">+encontrar(elemento: TIPO): TIPO</text><text fill="#000000" font-family="sans-serif" font-size="14" lengthAdjust="spacing" textLength="205" x="350.5" y="1039.5801">+unir(a: TIPO, b: TIPO): boolean</text></g><!--class BFS--><g id="elem_BFS"><rect codeLine="73" fill="#F1F1F1" height="100.8281" id="BFS" rx="2.5" ry="2.5" style="stroke:#181818;stroke-width:0.5;" width="242" x="1425" y="928.1094"/><ellipse cx="1512.25" cy="944.1094" fill="#ADD1B2" rx="11" ry="11" style="stroke:#181818;stroke-width:1.0;"/><path d="M1515.0156,939.9844 Q1515.1719,939.7656 1515.3594,939.6563 Q1515.5469,939.5469 1515.7656,939.5469 Q1516.1406,939.5469 1516.375,939.8125 Q1516.6094,940.0625 1516.6094,940.6719 L1516.6094,942.125 Q1516.6094,942.7344 1516.375,943 Q1516.1406,943.2656 1515.7656,943.2656 Q1515.4219,943.2656 1515.2188,943.0625 Q1515.0156,942.875 1514.9063,942.3594 Q1514.8594,942 1514.6719,941.8125 Q1514.3438,941.4375 1513.7344,941.2188 Q1513.125,941 1512.5,941 Q1511.7344,941 1511.0938,941.3281 Q1510.4688,941.6563 1509.9688,942.4063 Q1509.4844,943.1563 1509.4844,944.1875 L1509.4844,945.2813 Q1509.4844,946.5156 1510.375,947.3438 Q1511.2656,948.1563 1512.8594,948.1563 Q1513.7969,948.1563 1514.4531,947.9063 Q1514.8438,947.75 1515.2656,947.3125 Q1515.5313,947.0469 1515.6719,946.9688 Q1515.8281,946.8906 1516.0313,946.8906 Q1516.3594,946.8906 1516.6094,947.1563 Q1516.875,947.4063 1516.875,947.75 Q1516.875,948.0938 1516.5313,948.5 Q1516.0313,949.0781 1515.2344,949.4063 Q1514.1563,949.8594 1512.8594,949.8594 Q1511.3438,949.8594 1510.1406,949.2344 Q1509.1563,948.7344 1508.4688,947.6719 Q1507.7813,946.5938 1507.7813,945.3125 L1507.7813,944.1563 Q1507.7813,942.8281 1508.3906,941.6875 Q1509.0156,940.5313 1510.1094,939.9219 Q1511.2031,939.2969 1512.4375,939.2969 Q1513.1719,939.2969 1513.8125,939.4688 Q1514.4688,939.625 1515.0156,939.9844 Z " fill="#000000"/><text fill="#000000" font-family="sans-serif" font-size="14" lengthAdjust="spacing" textLength="27" x="1532.75" y="949.8379">BFS</text><rect fill="#FFFFFF" height="17.0938" style="stroke:#181818;stroke-width:1.0;stroke-dasharray:2.0,2.0;" width="30" x="1640" y="925.1094"/><text fill="#000000" font-family="sans-serif" font-size="12" font-style="italic" lengthAdjust="spacing" textLength="28" x="1641" y="938.5664">TIPO</text><line style="stroke:#181818;stroke-width:0.5;" x1="1426" x2="1666" y1="960.1094" y2="960.1094"/><text fill="#000000" font-family="sans-serif" font-size="14" lengthAdjust="spacing" textLength="230" x="1431" y="978.6426">-vertice: Map&lt;TIPO, Vertice&lt;TIPO&gt;&gt;</text><text fill="#000000" font-family="sans-serif" font-size="14" lengthAdjust="spacing" textLength="180" x="1431" y="996.252">-aresta: List&lt;Aresta&lt;TIPO&gt;&gt;</text><line style="stroke:#181818;stroke-width:0.5;" x1="1426" x2="1666" y1="1003.3281" y2="1003.3281"/><text fill="#000000" font-family="sans-serif" font-size="14" lengthAdjust="spacing" textLength="222" x="1431" y="1021.8613">+executar(inicio: TIPO): List&lt;TIPO&gt;</text></g><!--class DFS--><g id="elem_DFS"><rect codeLine="78" fill="#F1F1F1" height="100.8281" id="DFS" rx="2.5" ry="2.5" style="stroke:#181818;stroke-width:0.5;" width="242" x="1702" y="928.1094"/><ellipse cx="1788.75" cy="944.1094" fill="#ADD1B2" rx="11" ry="11" style="stroke:#181818;stroke-width:1.0;"/><path d="M1791.5156,939.9844 Q1791.6719,939.7656 1791.8594,939.6563 Q1792.0469,939.5469 1792.2656,939.5469 Q1792.6406,939.5469 1792.875,939.8125 Q1793.1094,940.0625 1793.1094,940.6719 L1793.1094,942.125 Q1793.1094,942.7344 1792.875,943 Q1792.6406,943.2656 1792.2656,943.2656 Q1791.9219,943.2656 1791.7188,943.0625 Q1791.5156,942.875 1791.4063,942.3594 Q1791.3594,942 1791.1719,941.8125 Q1790.8438,941.4375 1790.2344,941.2188 Q1789.625,941 1789,941 Q1788.2344,941 1787.5938,941.3281 Q1786.9688,941.6563 1786.4688,942.4063 Q1785.9844,943.1563 1785.9844,944.1875 L1785.9844,945.2813 Q1785.9844,946.5156 1786.875,947.3438 Q1787.7656,948.1563 1789.3594,948.1563 Q1790.2969,948.1563 1790.9531,947.9063 Q1791.3438,947.75 1791.7656,947.3125 Q1792.0313,947.0469 1792.1719,946.9688 Q1792.3281,946.8906 1792.5313,946.8906 Q1792.8594,946.8906 1793.1094,947.1563 Q1793.375,947.4063 1793.375,947.75 Q1793.375,948.0938 1793.0313,948.5 Q1792.5313,949.0781 1791.7344,949.4063 Q1790.6563,949.8594 1789.3594,949.8594 Q1787.8438,949.8594 1786.6406,949.2344 Q1785.6563,948.7344 1784.9688,947.6719 Q1784.2813,946.5938 1784.2813,945.3125 L1784.2813,944.1563 Q1784.2813,942.8281 1784.8906,941.6875 Q1785.5156,940.5313 1786.6094,939.9219 Q1787.7031,939.2969 1788.9375,939.2969 Q1789.6719,939.2969 1790.3125,939.4688 Q1790.9688,939.625 1791.5156,939.9844 Z " fill="#000000"/><text fill="#000000" font-family="sans-serif" font-size="14" lengthAdjust="spacing" textLength="28" x="1809.25" y="949.8379">DFS</text><rect fill="#FFFFFF" height="17.0938" style="stroke:#181818;stroke-width:1.0;stroke-dasharray:2.0,2.0;" width="30" x="1917" y="925.1094"/><text fill="#000000" font-family="sans-serif" font-size="12" font-style="italic" lengthAdjust="spacing" textLength="28" x="1918" y="938.5664">TIPO</text><line style="stroke:#181818;stroke-width:0.5;" x1="1703" x2="1943" y1="960.1094" y2="960.1094"/><text fill="#000000" font-family="sans-serif" font-size="14" lengthAdjust="spacing" textLength="230" x="1708" y="978.6426">-vertice: Map&lt;TIPO, Vertice&lt;TIPO&gt;&gt;</text><text fill="#000000" font-family="sans-serif" font-size="14" lengthAdjust="spacing" textLength="180" x="1708" y="996.252">-aresta: List&lt;Aresta&lt;TIPO&gt;&gt;</text><line style="stroke:#181818;stroke-width:0.5;" x1="1703" x2="1943" y1="1003.3281" y2="1003.3281"/><text fill="#000000" font-family="sans-serif" font-size="14" lengthAdjust="spacing" textLength="222" x="1708" y="1021.8613">+executar(inicio: TIPO): List&lt;TIPO&gt;</text></g><!--class AreasAfetadas--><g id="elem_AreasAfetadas"><rect codeLine="83" fill="#F1F1F1" height="100.8281" id="AreasAfetadas" rx="2.5" ry="2.5" style="stroke:#181818;stroke-width:0.5;" width="242" x="1979" y="928.1094"/><ellipse cx="2033.25" cy="944.1094" fill="#ADD1B2" rx="11" ry="11" style="stroke:#181818;stroke-width:1.0;"/><path d="M2036.0156,939.9844 Q2036.1719,939.7656 2036.3594,939.6563 Q2036.5469,939.5469 2036.7656,939.5469 Q2037.1406,939.5469 2037.375,939.8125 Q2037.6094,940.0625 2037.6094,940.6719 L2037.6094,942.125 Q2037.6094,942.7344 2037.375,943 Q2037.1406,943.2656 2036.7656,943.2656 Q2036.4219,943.2656 2036.2188,943.0625 Q2036.0156,942.875 2035.9063,942.3594 Q2035.8594,942 2035.6719,941.8125 Q2035.3438,941.4375 2034.7344,941.2188 Q2034.125,941 2033.5,941 Q2032.7344,941 2032.0938,941.3281 Q2031.4688,941.6563 2030.9688,942.4063 Q2030.4844,943.1563 2030.4844,944.1875 L2030.4844,945.2813 Q2030.4844,946.5156 2031.375,947.3438 Q2032.2656,948.1563 2033.8594,948.1563 Q2034.7969,948.1563 2035.4531,947.9063 Q2035.8438,947.75 2036.2656,947.3125 Q2036.5313,947.0469 2036.6719,946.9688 Q2036.8281,946.8906 2037.0313,946.8906 Q2037.3594,946.8906 2037.6094,947.1563 Q2037.875,947.4063 2037.875,947.75 Q2037.875,948.0938 2037.5313,948.5 Q2037.0313,949.0781 2036.2344,949.4063 Q2035.1563,949.8594 2033.8594,949.8594 Q2032.3438,949.8594 2031.1406,949.2344 Q2030.1563,948.7344 2029.4688,947.6719 Q2028.7813,946.5938 2028.7813,945.3125 L2028.7813,944.1563 Q2028.7813,942.8281 2029.3906,941.6875 Q2030.0156,940.5313 2031.1094,939.9219 Q2032.2031,939.2969 2033.4375,939.2969 Q2034.1719,939.2969 2034.8125,939.4688 Q2035.4688,939.625 2036.0156,939.9844 Z " fill="#000000"/><text fill="#000000" font-family="sans-serif" font-size="14" lengthAdjust="spacing" textLength="93" x="2053.75" y="949.8379">AreasAfetadas</text><rect fill="#FFFFFF" height="17.0938" style="stroke:#181818;stroke-width:1.0;stroke-dasharray:2.0,2.0;" width="30" x="2194" y="925.1094"/><text fill="#000000" font-family="sans-serif" font-size="12" font-style="italic" lengthAdjust="spacing" textLength="28" x="2195" y="938.5664">TIPO</text><line style="stroke:#181818;stroke-width:0.5;" x1="1980" x2="2220" y1="960.1094" y2="960.1094"/><text fill="#000000" font-family="sans-serif" font-size="14" lengthAdjust="spacing" textLength="230" x="1985" y="978.6426">-vertice: Map&lt;TIPO, Vertice&lt;TIPO&gt;&gt;</text><text fill="#000000" font-family="sans-serif" font-size="14" lengthAdjust="spacing" textLength="180" x="1985" y="996.252">-aresta: List&lt;Aresta&lt;TIPO&gt;&gt;</text><line style="stroke:#181818;stroke-width:0.5;" x1="1980" x2="2220" y1="1003.3281" y2="1003.3281"/><text fill="#000000" font-family="sans-serif" font-size="14" lengthAdjust="spacing" textLength="222" x="1985" y="1021.8613">+executar(fonte: TIPO): List&lt;TIPO&gt;</text></g><!--class CaminhoAlternativo--><g id="elem_CaminhoAlternativo"><rect codeLine="88" fill="#F1F1F1" height="100.8281" id="CaminhoAlternativo" rx="2.5" ry="2.5" style="stroke:#181818;stroke-width:0.5;" width="339" x="2256.5" y="928.1094"/><ellipse cx="2344.25" cy="944.1094" fill="#ADD1B2" rx="11" ry="11" style="stroke:#181818;stroke-width:1.0;"/><path d="M2347.0156,939.9844 Q2347.1719,939.7656 2347.3594,939.6563 Q2347.5469,939.5469 2347.7656,939.5469 Q2348.1406,939.5469 2348.375,939.8125 Q2348.6094,940.0625 2348.6094,940.6719 L2348.6094,942.125 Q2348.6094,942.7344 2348.375,943 Q2348.1406,943.2656 2347.7656,943.2656 Q2347.4219,943.2656 2347.2188,943.0625 Q2347.0156,942.875 2346.9063,942.3594 Q2346.8594,942 2346.6719,941.8125 Q2346.3438,941.4375 2345.7344,941.2188 Q2345.125,941 2344.5,941 Q2343.7344,941 2343.0938,941.3281 Q2342.4688,941.6563 2341.9688,942.4063 Q2341.4844,943.1563 2341.4844,944.1875 L2341.4844,945.2813 Q2341.4844,946.5156 2342.375,947.3438 Q2343.2656,948.1563 2344.8594,948.1563 Q2345.7969,948.1563 2346.4531,947.9063 Q2346.8438,947.75 2347.2656,947.3125 Q2347.5313,947.0469 2347.6719,946.9688 Q2347.8281,946.8906 2348.0313,946.8906 Q2348.3594,946.8906 2348.6094,947.1563 Q2348.875,947.4063 2348.875,947.75 Q2348.875,948.0938 2348.5313,948.5 Q2348.0313,949.0781 2347.2344,949.4063 Q2346.1563,949.8594 2344.8594,949.8594 Q2343.3438,949.8594 2342.1406,949.2344 Q2341.1563,948.7344 2340.4688,947.6719 Q2339.7813,946.5938 2339.7813,945.3125 L2339.7813,944.1563 Q2339.7813,942.8281 2340.3906,941.6875 Q2341.0156,940.5313 2342.1094,939.9219 Q2343.2031,939.2969 2344.4375,939.2969 Q2345.1719,939.2969 2345.8125,939.4688 Q2346.4688,939.625 2347.0156,939.9844 Z " fill="#000000"/><text fill="#000000" font-family="sans-serif" font-size="14" lengthAdjust="spacing" textLength="123" x="2364.75" y="949.8379">CaminhoAlternativo</text><rect fill="#FFFFFF" height="17.0938" style="stroke:#181818;stroke-width:1.0;stroke-dasharray:2.0,2.0;" width="30" x="2568.5" y="925.1094"/><text fill="#000000" font-family="sans-serif" font-size="12" font-style="italic" lengthAdjust="spacing" textLength="28" x="2569.5" y="938.5664">TIPO</text><line style="stroke:#181818;stroke-width:0.5;" x1="2257.5" x2="2594.5" y1="960.1094" y2="960.1094"/><text fill="#000000" font-family="sans-serif" font-size="14" lengthAdjust="spacing" textLength="230" x="2262.5" y="978.6426">-vertice: Map&lt;TIPO, Vertice&lt;TIPO&gt;&gt;</text><text fill="#000000" font-family="sans-serif" font-size="14" lengthAdjust="spacing" textLength="180" x="2262.5" y="996.252">-aresta: List&lt;Aresta&lt;TIPO&gt;&gt;</text><line style="stroke:#181818;stroke-width:0.5;" x1="2257.5" x2="2594.5" y1="1003.3281" y2="1003.3281"/><text fill="#000000" font-family="sans-serif" font-size="14" lengthAdjust="spacing" textLength="327" x="2262.5" y="1021.8613">+executar(origem: TIPO, destino: TIPO): List&lt;TIPO&gt;</text></g><!--class FluxoMaximo--><g id="elem_FluxoMaximo"><rect codeLine="93" fill="#F1F1F1" height="100.8281" id="FluxoMaximo" rx="2.5" ry="2.5" style="stroke:#181818;stroke-width:0.5;" width="284" x="2631" y="928.1094"/><ellipse cx="2712.25" cy="944.1094" fill="#ADD1B2" rx="11" ry="11" style="stroke:#181818;stroke-width:1.0;"/><path d="M2715.0156,939.9844 Q2715.1719,939.7656 2715.3594,939.6563 Q2715.5469,939.5469 2715.7656,939.5469 Q2716.1406,939.5469 2716.375,939.8125 Q2716.6094,940.0625 2716.6094,940.6719 L2716.6094,942.125 Q2716.6094,942.7344 2716.375,943 Q2716.1406,943.2656 2715.7656,943.2656 Q2715.4219,943.2656 2715.2188,943.0625 Q2715.0156,942.875 2714.9063,942.3594 Q2714.8594,942 2714.6719,941.8125 Q2714.3438,941.4375 2713.7344,941.2188 Q2713.125,941 2712.5,941 Q2711.7344,941 2711.0938,941.3281 Q2710.4688,941.6563 2709.9688,942.4063 Q2709.4844,943.1563 2709.4844,944.1875 L2709.4844,945.2813 Q2709.4844,946.5156 2710.375,947.3438 Q2711.2656,948.1563 2712.8594,948.1563 Q2713.7969,948.1563 2714.4531,947.9063 Q2714.8438,947.75 2715.2656,947.3125 Q2715.5313,947.0469 2715.6719,946.9688 Q2715.8281,946.8906 2716.0313,946.8906 Q2716.3594,946.8906 2716.6094,947.1563 Q2716.875,947.4063 2716.875,947.75 Q2716.875,948.0938 2716.5313,948.5 Q2716.0313,949.0781 2715.2344,949.4063 Q2714.1563,949.8594 2712.8594,949.8594 Q2711.3438,949.8594 2710.1406,949.2344 Q2709.1563,948.7344 2708.4688,947.6719 Q2707.7813,946.5938 2707.7813,945.3125 L2707.7813,944.1563 Q2707.7813,942.8281 2708.3906,941.6875 Q2709.0156,940.5313 2710.1094,939.9219 Q2711.2031,939.2969 2712.4375,939.2969 Q2713.1719,939.2969 2713.8125,939.4688 Q2714.4688,939.625 2715.0156,939.9844 Z " fill="#000000"/><text fill="#000000" font-family="sans-serif" font-size="14" lengthAdjust="spacing" textLength="81" x="2732.75" y="949.8379">FluxoMaximo</text><rect fill="#FFFFFF" height="17.0938" style="stroke:#181818;stroke-width:1.0;stroke-dasharray:2.0,2.0;" width="30" x="2888" y="925.1094"/><text fill="#000000" font-family="sans-serif" font-size="12" font-style="italic" lengthAdjust="spacing" textLength="28" x="2889" y="938.5664">TIPO</text><line style="stroke:#181818;stroke-width:0.5;" x1="2632" x2="2914" y1="960.1094" y2="960.1094"/><text fill="#000000" font-family="sans-serif" font-size="14" lengthAdjust="spacing" textLength="230" x="2637" y="978.6426">-vertice: Map&lt;TIPO, Vertice&lt;TIPO&gt;&gt;</text><text fill="#000000" font-family="sans-serif" font-size="14" lengthAdjust="spacing" textLength="180" x="2637" y="996.252">-aresta: List&lt;Aresta&lt;TIPO&gt;&gt;</text><line style="stroke:#181818;stroke-width:0.5;" x1="2632" x2="2914" y1="1003.3281" y2="1003.3281"/><text fill="#000000" font-family="sans-serif" font-size="14" lengthAdjust="spacing" textLength="272" x="2637" y="1021.8613">+executar(origem: TIPO, destino: TIPO): int</text></g><!--class Pontes--><g id="elem_Pontes"><rect codeLine="98" fill="#F1F1F1" height="100.8281" id="Pontes" rx="2.5" ry="2.5" style="stroke:#181818;stroke-width:0.5;" width="242" x="1066" y="1229.6094"/><ellipse cx="1144.75" cy="1245.6094" fill="#ADD1B2" rx="11" ry="11" style="stroke:#181818;stroke-width:1.0;"/><path d="M1147.5156,1241.4844 Q1147.6719,1241.2656 1147.8594,1241.1563 Q1148.0469,1241.0469 1148.2656,1241.0469 Q1148.6406,1241.0469 1148.875,1241.3125 Q1149.1094,1241.5625 1149.1094,1242.1719 L1149.1094,1243.625 Q1149.1094,1244.2344 1148.875,1244.5 Q1148.6406,1244.7656 1148.2656,1244.7656 Q1147.9219,1244.7656 1147.7188,1244.5625 Q1147.5156,1244.375 1147.4063,1243.8594 Q1147.3594,1243.5 1147.1719,1243.3125 Q1146.8438,1242.9375 1146.2344,1242.7188 Q1145.625,1242.5 1145,1242.5 Q1144.2344,1242.5 1143.5938,1242.8281 Q1142.9688,1243.1563 1142.4688,1243.9063 Q1141.9844,1244.6563 1141.9844,1245.6875 L1141.9844,1246.7813 Q1141.9844,1248.0156 1142.875,1248.8438 Q1143.7656,1249.6563 1145.3594,1249.6563 Q1146.2969,1249.6563 1146.9531,1249.4063 Q1147.3438,1249.25 1147.7656,1248.8125 Q1148.0313,1248.5469 1148.1719,1248.4688 Q1148.3281,1248.3906 1148.5313,1248.3906 Q1148.8594,1248.3906 1149.1094,1248.6563 Q1149.375,1248.9063 1149.375,1249.25 Q1149.375,1249.5938 1149.0313,1250 Q1148.5313,1250.5781 1147.7344,1250.9063 Q1146.6563,1251.3594 1145.3594,1251.3594 Q1143.8438,1251.3594 1142.6406,1250.7344 Q1141.6563,1250.2344 1140.9688,1249.1719 Q1140.2813,1248.0938 1140.2813,1246.8125 L1140.2813,1245.6563 Q1140.2813,1244.3281 1140.8906,1243.1875 Q1141.5156,1242.0313 1142.6094,1241.4219 Q1143.7031,1240.7969 1144.9375,1240.7969 Q1145.6719,1240.7969 1146.3125,1240.9688 Q1146.9688,1241.125 1147.5156,1241.4844 Z " fill="#000000"/><text fill="#000000" font-family="sans-serif" font-size="14" lengthAdjust="spacing" textLength="44" x="1165.25" y="1251.3379">Pontes</text><rect fill="#FFFFFF" height="17.0938" style="stroke:#181818;stroke-width:1.0;stroke-dasharray:2.0,2.0;" width="30" x="1281" y="1226.6094"/><text fill="#000000" font-family="sans-serif" font-size="12" font-style="italic" lengthAdjust="spacing" textLength="28" x="1282" y="1240.0664">TIPO</text><line style="stroke:#181818;stroke-width:0.5;" x1="1067" x2="1307" y1="1261.6094" y2="1261.6094"/><text fill="#000000" font-family="sans-serif" font-size="14" lengthAdjust="spacing" textLength="230" x="1072" y="1280.1426">-vertice: Map&lt;TIPO, Vertice&lt;TIPO&gt;&gt;</text><text fill="#000000" font-family="sans-serif" font-size="14" lengthAdjust="spacing" textLength="180" x="1072" y="1297.752">-aresta: List&lt;Aresta&lt;TIPO&gt;&gt;</text><line style="stroke:#181818;stroke-width:0.5;" x1="1067" x2="1307" y1="1304.8281" y2="1304.8281"/><text fill="#000000" font-family="sans-serif" font-size="14" lengthAdjust="spacing" textLength="207" x="1072" y="1323.3613">+executar(): List&lt;Aresta&lt;TIPO&gt;&gt;</text></g><!--class PontosPrioritarios--><g id="elem_PontosPrioritarios"><rect codeLine="103" fill="#F1F1F1" height="136.0469" id="PontosPrioritarios" rx="2.5" ry="2.5" style="stroke:#181818;stroke-width:0.5;" width="331" x="2950.5" y="910.6094"/><ellipse cx="3039.75" cy="926.6094" fill="#ADD1B2" rx="11" ry="11" style="stroke:#181818;stroke-width:1.0;"/><path d="M3042.5156,922.4844 Q3042.6719,922.2656 3042.8594,922.1563 Q3043.0469,922.0469 3043.2656,922.0469 Q3043.6406,922.0469 3043.875,922.3125 Q3044.1094,922.5625 3044.1094,923.1719 L3044.1094,924.625 Q3044.1094,925.2344 3043.875,925.5 Q3043.6406,925.7656 3043.2656,925.7656 Q3042.9219,925.7656 3042.7188,925.5625 Q3042.5156,925.375 3042.4063,924.8594 Q3042.3594,924.5 3042.1719,924.3125 Q3041.8438,923.9375 3041.2344,923.7188 Q3040.625,923.5 3040,923.5 Q3039.2344,923.5 3038.5938,923.8281 Q3037.9688,924.1563 3037.4688,924.9063 Q3036.9844,925.6563 3036.9844,926.6875 L3036.9844,927.7813 Q3036.9844,929.0156 3037.875,929.8438 Q3038.7656,930.6563 3040.3594,930.6563 Q3041.2969,930.6563 3041.9531,930.4063 Q3042.3438,930.25 3042.7656,929.8125 Q3043.0313,929.5469 3043.1719,929.4688 Q3043.3281,929.3906 3043.5313,929.3906 Q3043.8594,929.3906 3044.1094,929.6563 Q3044.375,929.9063 3044.375,930.25 Q3044.375,930.5938 3044.0313,931 Q3043.5313,931.5781 3042.7344,931.9063 Q3041.6563,932.3594 3040.3594,932.3594 Q3038.8438,932.3594 3037.6406,931.7344 Q3036.6563,931.2344 3035.9688,930.1719 Q3035.2813,929.0938 3035.2813,927.8125 L3035.2813,926.6563 Q3035.2813,925.3281 3035.8906,924.1875 Q3036.5156,923.0313 3037.6094,922.4219 Q3038.7031,921.7969 3039.9375,921.7969 Q3040.6719,921.7969 3041.3125,921.9688 Q3041.9688,922.125 3042.5156,922.4844 Z " fill="#000000"/><text fill="#000000" font-family="sans-serif" font-size="14" lengthAdjust="spacing" textLength="112" x="3060.25" y="932.3379">PontosPrioritarios</text><rect fill="#FFFFFF" height="17.0938" style="stroke:#181818;stroke-width:1.0;stroke-dasharray:2.0,2.0;" width="30" x="3254.5" y="907.6094"/><text fill="#000000" font-family="sans-serif" font-size="12" font-style="italic" lengthAdjust="spacing" textLength="28" x="3255.5" y="921.0664">TIPO</text><line style="stroke:#181818;stroke-width:0.5;" x1="2951.5" x2="3280.5" y1="942.6094" y2="942.6094"/><text fill="#000000" font-family="sans-serif" font-size="14" lengthAdjust="spacing" textLength="230" x="2956.5" y="961.1426">-vertice: Map&lt;TIPO, Vertice&lt;TIPO&gt;&gt;</text><text fill="#000000" font-family="sans-serif" font-size="14" lengthAdjust="spacing" textLength="180" x="2956.5" y="978.752">-aresta: List&lt;Aresta&lt;TIPO&gt;&gt;</text><line style="stroke:#181818;stroke-width:0.5;" x1="2951.5" x2="3280.5" y1="985.8281" y2="985.8281"/><text fill="#000000" font-family="sans-serif" font-size="14" lengthAdjust="spacing" textLength="243" x="2956.5" y="1004.3613">+pontesCriticas(): List&lt;Aresta&lt;TIPO&gt;&gt;</text><text fill="#000000" font-family="sans-serif" font-size="14" lengthAdjust="spacing" textLength="295" x="2956.5" y="1021.9707">+postesMaisFragilizados(topN: int): List&lt;TIPO&gt;</text><text fill="#000000" font-family="sans-serif" font-size="14" lengthAdjust="spacing" textLength="319" x="2956.5" y="1039.5801">+cabosMaisLongos(topN: int): List&lt;Aresta&lt;TIPO&gt;&gt;</text></g><!--class AGM--><g id="elem_AGM"><rect codeLine="110" fill="#F1F1F1" height="57.6094" id="AGM" rx="2.5" ry="2.5" style="stroke:#181818;stroke-width:0.5;" width="323" x="1066.5" y="949.6094"/><ellipse cx="1192.25" cy="965.6094" fill="#ADD1B2" rx="11" ry="11" style="stroke:#181818;stroke-width:1.0;"/><path d="M1195.0156,961.4844 Q1195.1719,961.2656 1195.3594,961.1563 Q1195.5469,961.0469 1195.7656,961.0469 Q1196.1406,961.0469 1196.375,961.3125 Q1196.6094,961.5625 1196.6094,962.1719 L1196.6094,963.625 Q1196.6094,964.2344 1196.375,964.5 Q1196.1406,964.7656 1195.7656,964.7656 Q1195.4219,964.7656 1195.2188,964.5625 Q1195.0156,964.375 1194.9063,963.8594 Q1194.8594,963.5 1194.6719,963.3125 Q1194.3438,962.9375 1193.7344,962.7188 Q1193.125,962.5 1192.5,962.5 Q1191.7344,962.5 1191.0938,962.8281 Q1190.4688,963.1563 1189.9688,963.9063 Q1189.4844,964.6563 1189.4844,965.6875 L1189.4844,966.7813 Q1189.4844,968.0156 1190.375,968.8438 Q1191.2656,969.6563 1192.8594,969.6563 Q1193.7969,969.6563 1194.4531,969.4063 Q1194.8438,969.25 1195.2656,968.8125 Q1195.5313,968.5469 1195.6719,968.4688 Q1195.8281,968.3906 1196.0313,968.3906 Q1196.3594,968.3906 1196.6094,968.6563 Q1196.875,968.9063 1196.875,969.25 Q1196.875,969.5938 1196.5313,970 Q1196.0313,970.5781 1195.2344,970.9063 Q1194.1563,971.3594 1192.8594,971.3594 Q1191.3438,971.3594 1190.1406,970.7344 Q1189.1563,970.2344 1188.4688,969.1719 Q1187.7813,968.0938 1187.7813,966.8125 L1187.7813,965.6563 Q1187.7813,964.3281 1188.3906,963.1875 Q1189.0156,962.0313 1190.1094,961.4219 Q1191.2031,960.7969 1192.4375,960.7969 Q1193.1719,960.7969 1193.8125,960.9688 Q1194.4688,961.125 1195.0156,961.4844 Z " fill="#000000"/><text fill="#000000" font-family="sans-serif" font-size="14" lengthAdjust="spacing" textLength="31" x="1212.75" y="971.3379">AGM</text><rect fill="#FFFFFF" height="17.0938" style="stroke:#181818;stroke-width:1.0;stroke-dasharray:2.0,2.0;" width="30" x="1362.5" y="946.6094"/><text fill="#000000" font-family="sans-serif" font-size="12" font-style="italic" lengthAdjust="spacing" textLength="28" x="1363.5" y="960.0664">TIPO</text><line style="stroke:#181818;stroke-width:0.5;" x1="1067.5" x2="1388.5" y1="981.6094" y2="981.6094"/><text fill="#000000" font-family="sans-serif" font-size="14" lengthAdjust="spacing" textLength="311" x="1072.5" y="1000.1426">+executar(vertices, arestas): List&lt;Aresta&lt;TIPO&gt;&gt;</text></g><!--class VisualizadorRede--><g id="elem_VisualizadorRede"><rect codeLine="116" fill="#F1F1F1" height="206.4844" id="VisualizadorRede" rx="2.5" ry="2.5" style="stroke:#181818;stroke-width:0.5;" width="258" x="3378" y="214.6094"/><ellipse cx="3447.75" cy="230.6094" fill="#ADD1B2" rx="11" ry="11" style="stroke:#181818;stroke-width:1.0;"/><path d="M3450.5156,226.4844 Q3450.6719,226.2656 3450.8594,226.1563 Q3451.0469,226.0469 3451.2656,226.0469 Q3451.6406,226.0469 3451.875,226.3125 Q3452.1094,226.5625 3452.1094,227.1719 L3452.1094,228.625 Q3452.1094,229.2344 3451.875,229.5 Q3451.6406,229.7656 3451.2656,229.7656 Q3450.9219,229.7656 3450.7188,229.5625 Q3450.5156,229.375 3450.4063,228.8594 Q3450.3594,228.5 3450.1719,228.3125 Q3449.8438,227.9375 3449.2344,227.7188 Q3448.625,227.5 3448,227.5 Q3447.2344,227.5 3446.5938,227.8281 Q3445.9688,228.1563 3445.4688,228.9063 Q3444.9844,229.6563 3444.9844,230.6875 L3444.9844,231.7813 Q3444.9844,233.0156 3445.875,233.8438 Q3446.7656,234.6563 3448.3594,234.6563 Q3449.2969,234.6563 3449.9531,234.4063 Q3450.3438,234.25 3450.7656,233.8125 Q3451.0313,233.5469 3451.1719,233.4688 Q3451.3281,233.3906 3451.5313,233.3906 Q3451.8594,233.3906 3452.1094,233.6563 Q3452.375,233.9063 3452.375,234.25 Q3452.375,234.5938 3452.0313,235 Q3451.5313,235.5781 3450.7344,235.9063 Q3449.6563,236.3594 3448.3594,236.3594 Q3446.8438,236.3594 3445.6406,235.7344 Q3444.6563,235.2344 3443.9688,234.1719 Q3443.2813,233.0938 3443.2813,231.8125 L3443.2813,230.6563 Q3443.2813,229.3281 3443.8906,228.1875 Q3444.5156,227.0313 3445.6094,226.4219 Q3446.7031,225.7969 3447.9375,225.7969 Q3448.6719,225.7969 3449.3125,225.9688 Q3449.9688,226.125 3450.5156,226.4844 Z " fill="#000000"/><text fill="#000000" font-family="sans-serif" font-size="14" lengthAdjust="spacing" textLength="110" x="3468.25" y="236.3379">VisualizadorRede</text><line style="stroke:#181818;stroke-width:0.5;" x1="3379" x2="3635" y1="246.6094" y2="246.6094"/><text fill="#000000" font-family="sans-serif" font-size="14" lengthAdjust="spacing" textLength="165" x="3384" y="265.1426">-mapViewer: JXMapViewer</text><text fill="#000000" font-family="sans-serif" font-size="14" lengthAdjust="spacing" textLength="212" x="3384" y="282.752">-pintorConexoes: PintorConexoes</text><text fill="#000000" font-family="sans-serif" font-size="14" lengthAdjust="spacing" textLength="169" x="3384" y="300.3613">-grafoRede: Grafo&lt;String&gt;</text><text fill="#000000" font-family="sans-serif" font-size="14" lengthAdjust="spacing" textLength="115" x="3384" y="317.9707">-modoAtual: Modo</text><text fill="#000000" font-family="sans-serif" font-size="14" lengthAdjust="spacing" textLength="230" x="3384" y="335.5801">-tipoVerticeSelecionado: TipoVertice</text><line style="stroke:#181818;stroke-width:0.5;" x1="3379" x2="3635" y1="342.6563" y2="342.6563"/><text fill="#000000" font-family="sans-serif" font-size="14" lengthAdjust="spacing" textLength="163" x="3384" y="361.1895">+recalcularEnergia(): void</text><text fill="#000000" font-family="sans-serif" font-size="14" lengthAdjust="spacing" textLength="205" x="3384" y="378.7988">+getGrafoRede(): Grafo&lt;String&gt;</text><text fill="#000000" font-family="sans-serif" font-size="14" lengthAdjust="spacing" textLength="246" x="3384" y="396.4082">+getPintorConexoes(): PintorConexoes</text><text fill="#000000" font-family="sans-serif" font-size="14" lengthAdjust="spacing" textLength="198" x="3384" y="414.0176">+getMapViewer(): JXMapViewer</text></g><!--class Modo--><g id="elem_Modo"><rect codeLine="128" fill="#F1F1F1" height="128.0469" id="Modo" rx="2.5" ry="2.5" style="stroke:#181818;stroke-width:0.5;" width="148" x="3748" y="493.6094"/><ellipse cx="3800.25" cy="509.6094" fill="#EB937F" rx="11" ry="11" style="stroke:#181818;stroke-width:1.0;"/><path d="M3799.1094,510.4063 L3799.1094,512.9063 L3803.4375,512.9063 L3803.4375,511.9844 Q3803.4375,511.375 3803.6719,511.1094 Q3803.9219,510.8438 3804.2969,510.8438 Q3804.6719,510.8438 3804.9063,511.1094 Q3805.1406,511.375 3805.1406,511.9844 L3805.1406,514.6094 L3797.1406,514.6094 Q3796.5156,514.6094 3796.25,514.375 Q3796,514.1406 3796,513.75 Q3796,513.375 3796.2656,513.1406 Q3796.5313,512.9063 3797.1406,512.9063 L3797.4063,512.9063 L3797.4063,506.25 L3797.1406,506.25 Q3796.5156,506.25 3796.25,506.0156 Q3796,505.7813 3796,505.3906 Q3796,505.0156 3796.25,504.7813 Q3796.5156,504.5469 3797.1406,504.5469 L3804.7656,504.5469 L3804.7656,507.1406 Q3804.7656,507.75 3804.5313,508.0156 Q3804.3125,508.2656 3803.9219,508.2656 Q3803.5469,508.2656 3803.3125,508.0156 Q3803.0781,507.75 3803.0781,507.1406 L3803.0781,506.25 L3799.1094,506.25 L3799.1094,508.7031 L3800.5938,508.7031 Q3800.5938,508.0469 3800.7188,507.8594 Q3800.9844,507.4531 3801.4531,507.4531 Q3801.8281,507.4531 3802.0625,507.7188 Q3802.2969,507.9688 3802.2969,508.5781 L3802.2969,510.5469 Q3802.2969,511.0938 3802.1719,511.2813 Q3801.9063,511.6719 3801.4531,511.6719 Q3800.9844,511.6719 3800.7188,511.2656 Q3800.5938,511.0781 3800.5938,510.4063 L3799.1094,510.4063 Z " fill="#000000"/><text fill="#000000" font-family="sans-serif" font-size="14" lengthAdjust="spacing" textLength="35" x="3820.75" y="515.3379">Modo</text><line style="stroke:#181818;stroke-width:0.5;" x1="3749" x2="3895" y1="525.6094" y2="525.6094"/><text fill="#000000" font-family="sans-serif" font-size="14" lengthAdjust="spacing" textLength="66" x="3754" y="544.1426">NAVEGAR</text><text fill="#000000" font-family="sans-serif" font-size="14" lengthAdjust="spacing" textLength="109" x="3754" y="561.752">CRIAR_VERTICE</text><text fill="#000000" font-family="sans-serif" font-size="14" lengthAdjust="spacing" textLength="117" x="3754" y="579.3613">LIGAR_VERTICES</text><text fill="#000000" font-family="sans-serif" font-size="14" lengthAdjust="spacing" textLength="136" x="3754" y="596.9707">REMOVER_VERTICE</text><text fill="#000000" font-family="sans-serif" font-size="14" lengthAdjust="spacing" textLength="125" x="3754" y="614.5801">ALTERNAR_FALHA</text></g><!--class PintorConexoes--><g id="elem_PintorConexoes"><rect codeLine="136" fill="#F1F1F1" height="188.875" id="PintorConexoes" rx="2.5" ry="2.5" style="stroke:#181818;stroke-width:0.5;" width="240" x="3498" y="884.1094"/><ellipse cx="3563.75" cy="900.1094" fill="#ADD1B2" rx="11" ry="11" style="stroke:#181818;stroke-width:1.0;"/><path d="M3566.5156,895.9844 Q3566.6719,895.7656 3566.8594,895.6563 Q3567.0469,895.5469 3567.2656,895.5469 Q3567.6406,895.5469 3567.875,895.8125 Q3568.1094,896.0625 3568.1094,896.6719 L3568.1094,898.125 Q3568.1094,898.7344 3567.875,899 Q3567.6406,899.2656 3567.2656,899.2656 Q3566.9219,899.2656 3566.7188,899.0625 Q3566.5156,898.875 3566.4063,898.3594 Q3566.3594,898 3566.1719,897.8125 Q3565.8438,897.4375 3565.2344,897.2188 Q3564.625,897 3564,897 Q3563.2344,897 3562.5938,897.3281 Q3561.9688,897.6563 3561.4688,898.4063 Q3560.9844,899.1563 3560.9844,900.1875 L3560.9844,901.2813 Q3560.9844,902.5156 3561.875,903.3438 Q3562.7656,904.1563 3564.3594,904.1563 Q3565.2969,904.1563 3565.9531,903.9063 Q3566.3438,903.75 3566.7656,903.3125 Q3567.0313,903.0469 3567.1719,902.9688 Q3567.3281,902.8906 3567.5313,902.8906 Q3567.8594,902.8906 3568.1094,903.1563 Q3568.375,903.4063 3568.375,903.75 Q3568.375,904.0938 3568.0313,904.5 Q3567.5313,905.0781 3566.7344,905.4063 Q3565.6563,905.8594 3564.3594,905.8594 Q3562.8438,905.8594 3561.6406,905.2344 Q3560.6563,904.7344 3559.9688,903.6719 Q3559.2813,902.5938 3559.2813,901.3125 L3559.2813,900.1563 Q3559.2813,898.8281 3559.8906,897.6875 Q3560.5156,896.5313 3561.6094,895.9219 Q3562.7031,895.2969 3563.9375,895.2969 Q3564.6719,895.2969 3565.3125,895.4688 Q3565.9688,895.625 3566.5156,895.9844 Z " fill="#000000"/><text fill="#000000" font-family="sans-serif" font-size="14" lengthAdjust="spacing" textLength="100" x="3584.25" y="905.8379">PintorConexoes</text><line style="stroke:#181818;stroke-width:0.5;" x1="3499" x2="3737" y1="916.1094" y2="916.1094"/><text fill="#000000" font-family="sans-serif" font-size="14" lengthAdjust="spacing" textLength="213" x="3504" y="934.6426">-vertices: Map&lt;String, VerticeVis&gt;</text><text fill="#000000" font-family="sans-serif" font-size="14" lengthAdjust="spacing" textLength="173" x="3504" y="952.252">-arestas: List&lt;ConexaoVis&gt;</text><text fill="#000000" font-family="sans-serif" font-size="14" lengthAdjust="spacing" textLength="131" x="3504" y="969.8613">-mapa: JXMapViewer</text><line style="stroke:#181818;stroke-width:0.5;" x1="3499" x2="3737" y1="976.9375" y2="976.9375"/><text fill="#000000" font-family="sans-serif" font-size="14" lengthAdjust="spacing" textLength="166" x="3504" y="995.4707">+adicionarVertice(...): void</text><text fill="#000000" font-family="sans-serif" font-size="14" lengthAdjust="spacing" textLength="163" x="3504" y="1013.0801">+adicionarAresta(...): void</text><text fill="#000000" font-family="sans-serif" font-size="14" lengthAdjust="spacing" textLength="228" x="3504" y="1030.6895">+removerVertice(nome: String): void</text><text fill="#000000" font-family="sans-serif" font-size="14" lengthAdjust="spacing" textLength="176" x="3504" y="1048.2988">+setEstadoEnergia(...): void</text><text fill="#000000" font-family="sans-serif" font-size="14" lengthAdjust="spacing" textLength="95" x="3504" y="1065.9082">+paint(...): void</text></g><!--class TipoVertice--><g id="elem_TipoVertice"><rect codeLine="146" fill="#F1F1F1" height="92.8281" id="TipoVertice" rx="2.5" ry="2.5" style="stroke:#181818;stroke-width:0.5;" width="105" x="3593.5" y="1425.6094"/><ellipse cx="3608.95" cy="1441.6094" fill="#EB937F" rx="11" ry="11" style="stroke:#181818;stroke-width:1.0;"/><path d="M3607.8094,1442.4063 L3607.8094,1444.9063 L3612.1375,1444.9063 L3612.1375,1443.9844 Q3612.1375,1443.375 3612.3719,1443.1094 Q3612.6219,1442.8438 3612.9969,1442.8438 Q3613.3719,1442.8438 3613.6063,1443.1094 Q3613.8406,1443.375 3613.8406,1443.9844 L3613.8406,1446.6094 L3605.8406,1446.6094 Q3605.2156,1446.6094 3604.95,1446.375 Q3604.7,1446.1406 3604.7,1445.75 Q3604.7,1445.375 3604.9656,1445.1406 Q3605.2313,1444.9063 3605.8406,1444.9063 L3606.1063,1444.9063 L3606.1063,1438.25 L3605.8406,1438.25 Q3605.2156,1438.25 3604.95,1438.0156 Q3604.7,1437.7813 3604.7,1437.3906 Q3604.7,1437.0156 3604.95,1436.7813 Q3605.2156,1436.5469 3605.8406,1436.5469 L3613.4656,1436.5469 L3613.4656,1439.1406 Q3613.4656,1439.75 3613.2313,1440.0156 Q3613.0125,1440.2656 3612.6219,1440.2656 Q3612.2469,1440.2656 3612.0125,1440.0156 Q3611.7781,1439.75 3611.7781,1439.1406 L3611.7781,1438.25 L3607.8094,1438.25 L3607.8094,1440.7031 L3609.2938,1440.7031 Q3609.2938,1440.0469 3609.4188,1439.8594 Q3609.6844,1439.4531 3610.1531,1439.4531 Q3610.5281,1439.4531 3610.7625,1439.7188 Q3610.9969,1439.9688 3610.9969,1440.5781 L3610.9969,1442.5469 Q3610.9969,1443.0938 3610.8719,1443.2813 Q3610.6063,1443.6719 3610.1531,1443.6719 Q3609.6844,1443.6719 3609.4188,1443.2656 Q3609.2938,1443.0781 3609.2938,1442.4063 L3607.8094,1442.4063 Z " fill="#000000"/><text fill="#000000" font-family="sans-serif" font-size="14" lengthAdjust="spacing" textLength="72" x="3623.05" y="1447.3379">TipoVertice</text><line style="stroke:#181818;stroke-width:0.5;" x1="3594.5" x2="3697.5" y1="1457.6094" y2="1457.6094"/><text fill="#000000" font-family="sans-serif" font-size="14" lengthAdjust="spacing" textLength="93" x="3599.5" y="1476.1426">SUBESTACAO</text><text fill="#000000" font-family="sans-serif" font-size="14" lengthAdjust="spacing" textLength="47" x="3599.5" y="1493.752">POSTE</text><text fill="#000000" font-family="sans-serif" font-size="14" lengthAdjust="spacing" textLength="37" x="3599.5" y="1511.3613">CASA</text></g><!--class VerticeVis--><g id="elem_VerticeVis"><rect codeLine="151" fill="#F1F1F1" height="92.8281" id="VerticeVis" rx="2.5" ry="2.5" style="stroke:#181818;stroke-width:0.5;" width="154" x="3441" y="1233.6094"/><ellipse cx="3482.55" cy="1249.6094" fill="#ADD1B2" rx="11" ry="11" style="stroke:#181818;stroke-width:1.0;"/><path d="M3485.3156,1245.4844 Q3485.4719,1245.2656 3485.6594,1245.1563 Q3485.8469,1245.0469 3486.0656,1245.0469 Q3486.4406,1245.0469 3486.675,1245.3125 Q3486.9094,1245.5625 3486.9094,1246.1719 L3486.9094,1247.625 Q3486.9094,1248.2344 3486.675,1248.5 Q3486.4406,1248.7656 3486.0656,1248.7656 Q3485.7219,1248.7656 3485.5188,1248.5625 Q3485.3156,1248.375 3485.2063,1247.8594 Q3485.1594,1247.5 3484.9719,1247.3125 Q3484.6438,1246.9375 3484.0344,1246.7188 Q3483.425,1246.5 3482.8,1246.5 Q3482.0344,1246.5 3481.3938,1246.8281 Q3480.7688,1247.1563 3480.2688,1247.9063 Q3479.7844,1248.6563 3479.7844,1249.6875 L3479.7844,1250.7813 Q3479.7844,1252.0156 3480.675,1252.8438 Q3481.5656,1253.6563 3483.1594,1253.6563 Q3484.0969,1253.6563 3484.7531,1253.4063 Q3485.1438,1253.25 3485.5656,1252.8125 Q3485.8313,1252.5469 3485.9719,1252.4688 Q3486.1281,1252.3906 3486.3313,1252.3906 Q3486.6594,1252.3906 3486.9094,1252.6563 Q3487.175,1252.9063 3487.175,1253.25 Q3487.175,1253.5938 3486.8313,1254 Q3486.3313,1254.5781 3485.5344,1254.9063 Q3484.4563,1255.3594 3483.1594,1255.3594 Q3481.6438,1255.3594 3480.4406,1254.7344 Q3479.4563,1254.2344 3478.7688,1253.1719 Q3478.0813,1252.0938 3478.0813,1250.8125 L3478.0813,1249.6563 Q3478.0813,1248.3281 3478.6906,1247.1875 Q3479.3156,1246.0313 3480.4094,1245.4219 Q3481.5031,1244.7969 3482.7375,1244.7969 Q3483.4719,1244.7969 3484.1125,1244.9688 Q3484.7688,1245.125 3485.3156,1245.4844 Z " fill="#000000"/><text fill="#000000" font-family="sans-serif" font-size="14" lengthAdjust="spacing" textLength="63" x="3502.45" y="1255.3379">VerticeVis</text><line style="stroke:#181818;stroke-width:0.5;" x1="3442" x2="3594" y1="1265.6094" y2="1265.6094"/><text fill="#000000" font-family="sans-serif" font-size="14" lengthAdjust="spacing" textLength="88" x="3447" y="1284.1426">+nome: String</text><text fill="#000000" font-family="sans-serif" font-size="14" lengthAdjust="spacing" textLength="142" x="3447" y="1301.752">+posicao: GeoPosition</text><text fill="#000000" font-family="sans-serif" font-size="14" lengthAdjust="spacing" textLength="111" x="3447" y="1319.3613">+tipo: TipoVertice</text></g><!--class ConexaoVis--><g id="elem_ConexaoVis"><rect codeLine="156" fill="#F1F1F1" height="92.8281" id="ConexaoVis" rx="2.5" ry="2.5" style="stroke:#181818;stroke-width:0.5;" width="108" x="3630" y="1233.6094"/><ellipse cx="3645.45" cy="1249.6094" fill="#ADD1B2" rx="11" ry="11" style="stroke:#181818;stroke-width:1.0;"/><path d="M3648.2156,1245.4844 Q3648.3719,1245.2656 3648.5594,1245.1563 Q3648.7469,1245.0469 3648.9656,1245.0469 Q3649.3406,1245.0469 3649.575,1245.3125 Q3649.8094,1245.5625 3649.8094,1246.1719 L3649.8094,1247.625 Q3649.8094,1248.2344 3649.575,1248.5 Q3649.3406,1248.7656 3648.9656,1248.7656 Q3648.6219,1248.7656 3648.4188,1248.5625 Q3648.2156,1248.375 3648.1063,1247.8594 Q3648.0594,1247.5 3647.8719,1247.3125 Q3647.5438,1246.9375 3646.9344,1246.7188 Q3646.325,1246.5 3645.7,1246.5 Q3644.9344,1246.5 3644.2938,1246.8281 Q3643.6688,1247.1563 3643.1688,1247.9063 Q3642.6844,1248.6563 3642.6844,1249.6875 L3642.6844,1250.7813 Q3642.6844,1252.0156 3643.575,1252.8438 Q3644.4656,1253.6563 3646.0594,1253.6563 Q3646.9969,1253.6563 3647.6531,1253.4063 Q3648.0438,1253.25 3648.4656,1252.8125 Q3648.7313,1252.5469 3648.8719,1252.4688 Q3649.0281,1252.3906 3649.2313,1252.3906 Q3649.5594,1252.3906 3649.8094,1252.6563 Q3650.075,1252.9063 3650.075,1253.25 Q3650.075,1253.5938 3649.7313,1254 Q3649.2313,1254.5781 3648.4344,1254.9063 Q3647.3563,1255.3594 3646.0594,1255.3594 Q3644.5438,1255.3594 3643.3406,1254.7344 Q3642.3563,1254.2344 3641.6688,1253.1719 Q3640.9813,1252.0938 3640.9813,1250.8125 L3640.9813,1249.6563 Q3640.9813,1248.3281 3641.5906,1247.1875 Q3642.2156,1246.0313 3643.3094,1245.4219 Q3644.4031,1244.7969 3645.6375,1244.7969 Q3646.3719,1244.7969 3647.0125,1244.9688 Q3647.6688,1245.125 3648.2156,1245.4844 Z " fill="#000000"/><text fill="#000000" font-family="sans-serif" font-size="14" lengthAdjust="spacing" textLength="75" x="3659.55" y="1255.3379">ConexaoVis</text><line style="stroke:#181818;stroke-width:0.5;" x1="3631" x2="3737" y1="1265.6094" y2="1265.6094"/><text fill="#000000" font-family="sans-serif" font-size="14" lengthAdjust="spacing" textLength="93" x="3636" y="1284.1426">-origem: String</text><text fill="#000000" font-family="sans-serif" font-size="14" lengthAdjust="spacing" textLength="96" x="3636" y="1301.752">-destino: String</text><text fill="#000000" font-family="sans-serif" font-size="14" lengthAdjust="spacing" textLength="59" x="3636" y="1319.3613">-peso: int</text></g><!--class GerenciadorTestes--><g id="elem_GerenciadorTestes"><rect codeLine="162" fill="#F1F1F1" height="153.6563" id="GerenciadorTestes" rx="2.5" ry="2.5" style="stroke:#181818;stroke-width:0.5;" width="263" x="3375.5" y="480.6094"/><ellipse cx="3441.75" cy="496.6094" fill="#ADD1B2" rx="11" ry="11" style="stroke:#181818;stroke-width:1.0;"/><path d="M3444.5156,492.4844 Q3444.6719,492.2656 3444.8594,492.1563 Q3445.0469,492.0469 3445.2656,492.0469 Q3445.6406,492.0469 3445.875,492.3125 Q3446.1094,492.5625 3446.1094,493.1719 L3446.1094,494.625 Q3446.1094,495.2344 3445.875,495.5 Q3445.6406,495.7656 3445.2656,495.7656 Q3444.9219,495.7656 3444.7188,495.5625 Q3444.5156,495.375 3444.4063,494.8594 Q3444.3594,494.5 3444.1719,494.3125 Q3443.8438,493.9375 3443.2344,493.7188 Q3442.625,493.5 3442,493.5 Q3441.2344,493.5 3440.5938,493.8281 Q3439.9688,494.1563 3439.4688,494.9063 Q3438.9844,495.6563 3438.9844,496.6875 L3438.9844,497.7813 Q3438.9844,499.0156 3439.875,499.8438 Q3440.7656,500.6563 3442.3594,500.6563 Q3443.2969,500.6563 3443.9531,500.4063 Q3444.3438,500.25 3444.7656,499.8125 Q3445.0313,499.5469 3445.1719,499.4688 Q3445.3281,499.3906 3445.5313,499.3906 Q3445.8594,499.3906 3446.1094,499.6563 Q3446.375,499.9063 3446.375,500.25 Q3446.375,500.5938 3446.0313,501 Q3445.5313,501.5781 3444.7344,501.9063 Q3443.6563,502.3594 3442.3594,502.3594 Q3440.8438,502.3594 3439.6406,501.7344 Q3438.6563,501.2344 3437.9688,500.1719 Q3437.2813,499.0938 3437.2813,497.8125 L3437.2813,496.6563 Q3437.2813,495.3281 3437.8906,494.1875 Q3438.5156,493.0313 3439.6094,492.4219 Q3440.7031,491.7969 3441.9375,491.7969 Q3442.6719,491.7969 3443.3125,491.9688 Q3443.9688,492.125 3444.5156,492.4844 Z " fill="#000000"/><text fill="#000000" font-family="sans-serif" font-size="14" lengthAdjust="spacing" textLength="122" x="3462.25" y="502.3379">GerenciadorTestes</text><line style="stroke:#181818;stroke-width:0.5;" x1="3376.5" x2="3637.5" y1="512.6094" y2="512.6094"/><text fill="#000000" font-family="sans-serif" font-size="14" lengthAdjust="spacing" textLength="232" x="3381.5" y="531.1426">-interfacePrincipal: VisualizadorRede</text><text fill="#000000" font-family="sans-serif" font-size="14" lengthAdjust="spacing" textLength="135" x="3381.5" y="548.752">-grafo: Grafo&lt;String&gt;</text><text fill="#000000" font-family="sans-serif" font-size="14" lengthAdjust="spacing" textLength="149" x="3381.5" y="566.3613">-pintor: PintorConexoes</text><line style="stroke:#181818;stroke-width:0.5;" x1="3376.5" x2="3637.5" y1="573.4375" y2="573.4375"/><text fill="#000000" font-family="sans-serif" font-size="14" lengthAdjust="spacing" textLength="195" x="3381.5" y="591.9707">+iniciarTesteAutomatico(): void</text><text fill="#000000" font-family="sans-serif" font-size="14" lengthAdjust="spacing" textLength="231" x="3381.5" y="609.5801">+executarTestePersonalizado(): void</text><text fill="#000000" font-family="sans-serif" font-size="14" lengthAdjust="spacing" textLength="251" x="3381.5" y="627.1895">+registrarFalhaManualNoMapa(...): void</text></g><!--class ModeloTesteAutomatico--><g id="elem_ModeloTesteAutomatico"><rect codeLine="170" fill="#F1F1F1" height="68.3125" id="ModeloTesteAutomatico" rx="2.5" ry="2.5" style="stroke:#181818;stroke-width:0.5;" width="325" x="3338.5" y="694.6094"/><ellipse cx="3420.75" cy="715.9609" fill="#ADD1B2" rx="11" ry="11" style="stroke:#181818;stroke-width:1.0;"/><path d="M3423.5156,711.8359 Q3423.6719,711.6172 3423.8594,711.5078 Q3424.0469,711.3984 3424.2656,711.3984 Q3424.6406,711.3984 3424.875,711.6641 Q3425.1094,711.9141 3425.1094,712.5234 L3425.1094,713.9766 Q3425.1094,714.5859 3424.875,714.8516 Q3424.6406,715.1172 3424.2656,715.1172 Q3423.9219,715.1172 3423.7188,714.9141 Q3423.5156,714.7266 3423.4063,714.2109 Q3423.3594,713.8516 3423.1719,713.6641 Q3422.8438,713.2891 3422.2344,713.0703 Q3421.625,712.8516 3421,712.8516 Q3420.2344,712.8516 3419.5938,713.1797 Q3418.9688,713.5078 3418.4688,714.2578 Q3417.9844,715.0078 3417.9844,716.0391 L3417.9844,717.1328 Q3417.9844,718.3672 3418.875,719.1953 Q3419.7656,720.0078 3421.3594,720.0078 Q3422.2969,720.0078 3422.9531,719.7578 Q3423.3438,719.6016 3423.7656,719.1641 Q3424.0313,718.8984 3424.1719,718.8203 Q3424.3281,718.7422 3424.5313,718.7422 Q3424.8594,718.7422 3425.1094,719.0078 Q3425.375,719.2578 3425.375,719.6016 Q3425.375,719.9453 3425.0313,720.3516 Q3424.5313,720.9297 3423.7344,721.2578 Q3422.6563,721.7109 3421.3594,721.7109 Q3419.8438,721.7109 3418.6406,721.0859 Q3417.6563,720.5859 3416.9688,719.5234 Q3416.2813,718.4453 3416.2813,717.1641 L3416.2813,716.0078 Q3416.2813,714.6797 3416.8906,713.5391 Q3417.5156,712.3828 3418.6094,711.7734 Q3419.7031,711.1484 3420.9375,711.1484 Q3421.6719,711.1484 3422.3125,711.3203 Q3422.9688,711.4766 3423.5156,711.8359 Z " fill="#000000"/><text fill="#000000" font-family="sans-serif" font-size="12" font-style="italic" lengthAdjust="spacing" textLength="42" x="3496.25" y="712.0664">&#171;utility&#187;</text><text fill="#000000" font-family="sans-serif" font-size="14" lengthAdjust="spacing" textLength="152" x="3441.25" y="729.2363">ModeloTesteAutomatico</text><line style="stroke:#181818;stroke-width:0.5;" x1="3339.5" x2="3662.5" y1="737.3125" y2="737.3125"/><text fill="#000000" font-family="sans-serif" font-size="14" lengthAdjust="spacing" text-decoration="underline" textLength="313" x="3344.5" y="755.8457">+construirRedeBase(grafo, pintor, interface): void</text></g><g id="elem_GMN73"><path d="M6,1258.6094 L6,1301.3125 L312,1301.3125 L312,1268.6094 L302,1258.6094 L6,1258.6094 " fill="#FEFFDD" style="stroke:#181818;stroke-width:0.5;"/><path d="M302,1258.6094 L302,1268.6094 L312,1268.6094 L302,1258.6094 " fill="#FEFFDD" style="stroke:#181818;stroke-width:1.0;"/><text fill="#000000" font-family="sans-serif" font-size="13" lengthAdjust="spacing" textLength="285" x="12" y="1277.1045">Grafo n&#227;o implementa os algoritmos diretamente:</text><text fill="#000000" font-family="sans-serif" font-size="13" lengthAdjust="spacing" textLength="219" x="12" y="1293.4561">ele os instancia e delega a execu&#231;&#227;o.</text></g><!--reverse link Nodo to Vertice--><g id="link_Nodo_Vertice"><path codeLine="176" d="M751.52,1280.6094 C776.46,1280.6094 778.17,1280.6094 778.17,1280.6094 C778.17,1280.6094 778.17,1368.5694 778.17,1425.2594 " fill="none" id="Nodo-backto-Vertice" style="stroke:#181818;stroke-width:1.0;"/><polygon fill="none" points="733.52,1280.6094,751.52,1286.6094,751.52,1274.6094,733.52,1280.6094" style="stroke:#181818;stroke-width:1.0;"/></g><!--reverse link Grafo to Vertice--><g id="link_Grafo_Vertice"><path codeLine="177" d="M792.33,1146.7594 C792.33,1247.4294 792.33,1359.4594 792.33,1425.5194 " fill="none" id="Grafo-backto-Vertice" style="stroke:#181818;stroke-width:1.0;"/><polygon fill="#181818" points="792.33,1134.7594,788.33,1140.7594,792.33,1146.7594,796.33,1140.7594,792.33,1134.7594" style="stroke:#181818;stroke-width:1.0;"/><text fill="#000000" font-family="sans-serif" font-size="13" lengthAdjust="spacing" textLength="57" x="734.33" y="1276.6345">armazena</text><text fill="#000000" font-family="sans-serif" font-size="13" lengthAdjust="spacing" textLength="20" x="756.3024" y="1414.6955">0..*</text></g><!--reverse link Grafo to Aresta--><g id="link_Grafo_Aresta"><path codeLine="178" d="M908,1146.6594 C908,1167.2094 908,1175.6194 908,1194.3794 " fill="none" id="Grafo-backto-Aresta" style="stroke:#181818;stroke-width:1.0;"/><polygon fill="#181818" points="908,1134.6594,904,1140.6594,908,1146.6594,912,1140.6594,908,1134.6594" style="stroke:#181818;stroke-width:1.0;"/><text fill="#000000" font-family="sans-serif" font-size="13" lengthAdjust="spacing" textLength="57" x="850" y="1161.0145">armazena</text><text fill="#000000" font-family="sans-serif" font-size="13" lengthAdjust="spacing" textLength="20" x="887.1406" y="1183.8233">0..*</text></g><!--link Aresta to Vertice--><g id="link_Aresta_Vertice"><path codeLine="179" d="M941.83,1365.7194 C941.83,1386.3194 941.83,1401.5694 941.83,1419.5994 " fill="none" id="Aresta-to-Vertice" style="stroke:#181818;stroke-width:1.0;"/><polygon fill="#181818" points="941.83,1425.5994,945.83,1416.5994,941.83,1420.5994,937.83,1416.5994,941.83,1425.5994" style="stroke:#181818;stroke-width:1.0;"/><text fill="#000000" font-family="sans-serif" font-size="13" lengthAdjust="spacing" textLength="7" x="933.83" y="1392.1545">u</text><text fill="#000000" font-family="sans-serif" font-size="13" lengthAdjust="spacing" textLength="7" x="942.6899" y="1414.7877">1</text></g><!--link Aresta to Vertice--><g id="link_Aresta_Vertice"><path codeLine="180" d="M874.17,1365.7194 C874.17,1386.3194 874.17,1401.5694 874.17,1419.5994 " fill="none" id="Aresta-to-Vertice-1" style="stroke:#181818;stroke-width:1.0;"/><polygon fill="#181818" points="874.17,1425.5994,878.17,1416.5994,874.17,1420.5994,870.17,1416.5994,874.17,1425.5994" style="stroke:#181818;stroke-width:1.0;"/><text fill="#000000" font-family="sans-serif" font-size="13" lengthAdjust="spacing" textLength="5" x="868.17" y="1392.1545">v</text><text fill="#000000" font-family="sans-serif" font-size="13" lengthAdjust="spacing" textLength="7" x="864.6695" y="1414.7877">1</text></g><!--link Grafo to BFS--><g id="link_Grafo_BFS"><path codeLine="183" d="M1009.75,1018.6094 C1141.29,1018.6094 1305.84,1018.6094 1418.89,1018.6094 " fill="none" id="Grafo-to-BFS" style="stroke:#181818;stroke-width:1.0;stroke-dasharray:7.0,7.0;"/><polygon fill="#181818" points="1424.89,1018.6094,1415.89,1014.6094,1419.89,1018.6094,1415.89,1022.6094,1424.89,1018.6094" style="stroke:#181818;stroke-width:1.0;"/><text fill="#000000" font-family="sans-serif" font-size="13" lengthAdjust="spacing" textLength="38" x="1178.32" y="1033.1045">delega</text></g><!--link Grafo to DFS--><g id="link_Grafo_DFS"><path codeLine="184" d="M1009.7,1031.6094 C1285.77,1031.6094 1762.5,1031.6094 1762.5,1031.6094 C1762.5,1031.6094 1762.5,1036.7794 1762.5,1035.3294 " fill="none" id="Grafo-to-DFS" style="stroke:#181818;stroke-width:1.0;stroke-dasharray:7.0,7.0;"/><polygon fill="#181818" points="1762.5,1029.3294,1758.5,1038.3294,1762.5,1034.3294,1766.5,1038.3294,1762.5,1029.3294" style="stroke:#181818;stroke-width:1.0;"/><text fill="#000000" font-family="sans-serif" font-size="13" lengthAdjust="spacing" textLength="38" x="1348.24" y="1028.1045">delega</text></g><!--link Grafo to AreasAfetadas--><g id="link_Grafo_AreasAfetadas"><path codeLine="185" d="M1009.53,1034.6094 C1353.3,1034.6094 2039.5,1034.6094 2039.5,1034.6094 C2039.5,1034.6094 2039.5,1038.6394 2039.5,1035.4394 " fill="none" id="Grafo-to-AreasAfetadas" style="stroke:#181818;stroke-width:1.0;stroke-dasharray:7.0,7.0;"/><polygon fill="#181818" points="2039.5,1029.4394,2035.5,1038.4394,2039.5,1034.4394,2043.5,1038.4394,2039.5,1029.4394" style="stroke:#181818;stroke-width:1.0;"/><text fill="#000000" font-family="sans-serif" font-size="13" lengthAdjust="spacing" textLength="38" x="1488.1" y="1049.1045">delega</text></g><!--link Grafo to CaminhoAlternativo--><g id="link_Grafo_CaminhoAlternativo"><path codeLine="186" d="M1009.76,1036.6094 C1419.07,1036.6094 2341.25,1036.6094 2341.25,1036.6094 C2341.25,1036.6094 2341.25,1039.8294 2341.25,1035.4994 " fill="none" id="Grafo-to-CaminhoAlternativo" style="stroke:#181818;stroke-width:1.0;stroke-dasharray:7.0,7.0;"/><polygon fill="#181818" points="2341.25,1029.4994,2337.25,1038.4994,2341.25,1034.4994,2345.25,1038.4994,2341.25,1029.4994" style="stroke:#181818;stroke-width:1.0;"/><text fill="#000000" font-family="sans-serif" font-size="13" lengthAdjust="spacing" textLength="38" x="1640.06" y="1051.1045">delega</text></g><!--link Grafo to FluxoMaximo--><g id="link_Grafo_FluxoMaximo"><path codeLine="187" d="M1009.89,1039.6094 C1489.46,1039.6094 2702,1039.6094 2702,1039.6094 C2702,1039.6094 2702,1041.4294 2702,1035.2594 " fill="none" id="Grafo-to-FluxoMaximo" style="stroke:#181818;stroke-width:1.0;stroke-dasharray:7.0,7.0;"/><polygon fill="#181818" points="2702,1029.2594,2698,1038.2594,2702,1034.2594,2706,1038.2594,2702,1029.2594" style="stroke:#181818;stroke-width:1.0;"/><text fill="#000000" font-family="sans-serif" font-size="13" lengthAdjust="spacing" textLength="38" x="1822.12" y="1054.1045">delega</text></g><!--link Grafo to Pontes--><g id="link_Grafo_Pontes"><path codeLine="188" d="M1009.66,1104.6094 C1099.57,1104.6094 1187.25,1104.6094 1187.25,1104.6094 C1187.25,1104.6094 1187.25,1171.5194 1187.25,1223.3494 " fill="none" id="Grafo-to-Pontes" style="stroke:#181818;stroke-width:1.0;stroke-dasharray:7.0,7.0;"/><polygon fill="#181818" points="1187.25,1229.3494,1191.25,1220.3494,1187.25,1224.3494,1183.25,1220.3494,1187.25,1229.3494" style="stroke:#181818;stroke-width:1.0;"/><text fill="#000000" font-family="sans-serif" font-size="13" lengthAdjust="spacing" textLength="38" x="1121.82" y="1101.1045">delega</text></g><!--link Grafo to PontosPrioritarios--><g id="link_Grafo_PontosPrioritarios"><path codeLine="189" d="M1009.97,1041.6094 C1451.98,1041.6094 2529.36,1041.6094 2944.45,1041.6094 " fill="none" id="Grafo-to-PontosPrioritarios" style="stroke:#181818;stroke-width:1.0;stroke-dasharray:7.0,7.0;"/><polygon fill="#181818" points="2950.45,1041.6094,2941.45,1037.6094,2945.45,1041.6094,2941.45,1045.6094,2950.45,1041.6094" style="stroke:#181818;stroke-width:1.0;"/><text fill="#000000" font-family="sans-serif" font-size="13" lengthAdjust="spacing" textLength="38" x="1941.21" y="1056.1045">delega</text></g><!--link Grafo to AGM--><g id="link_Grafo_AGM"><path codeLine="190" d="M1009.8,978.6094 C1028.76,978.6094 1041.88,978.6094 1060.49,978.6094 " fill="none" id="Grafo-to-AGM" style="stroke:#181818;stroke-width:1.0;stroke-dasharray:7.0,7.0;"/><polygon fill="#181818" points="1066.49,978.6094,1057.49,974.6094,1061.49,978.6094,1057.49,982.6094,1066.49,978.6094" style="stroke:#181818;stroke-width:1.0;"/><text fill="#000000" font-family="sans-serif" font-size="13" lengthAdjust="spacing" textLength="38" x="1019.14" y="993.1045">delega</text></g><!--link AGM to ConjuntoDisjunto--><g id="link_AGM_ConjuntoDisjunto"><path codeLine="191" d="M1126.88,1007.6694 C1126.88,1059.9894 1126.88,1164.6094 1126.88,1164.6094 C1126.88,1164.6094 561,1164.6094 561,1164.6094 C561,1164.6094 561,1105.8994 561,1052.8094 " fill="none" id="AGM-to-ConjuntoDisjunto" style="stroke:#181818;stroke-width:1.0;stroke-dasharray:7.0,7.0;"/><polygon fill="#181818" points="561,1046.8094,557,1055.8094,561,1051.8094,565,1055.8094,561,1046.8094" style="stroke:#181818;stroke-width:1.0;"/><text fill="#000000" font-family="sans-serif" font-size="13" lengthAdjust="spacing" textLength="21" x="841.51" y="1179.1045">usa</text></g><!--link PontosPrioritarios to Pontes--><g id="link_PontosPrioritarios_Pontes"><path codeLine="192" d="M2950.19,1044.6094 C2492.93,1044.6094 1247.62,1044.6094 1247.62,1044.6094 C1247.62,1044.6094 1247.62,1154.3894 1247.62,1223.5894 " fill="none" id="PontosPrioritarios-to-Pontes" style="stroke:#181818;stroke-width:1.0;stroke-dasharray:7.0,7.0;"/><polygon fill="#181818" points="1247.62,1229.5894,1251.62,1220.5894,1247.62,1224.5894,1243.62,1220.5894,1247.62,1229.5894" style="stroke:#181818;stroke-width:1.0;"/><text fill="#000000" font-family="sans-serif" font-size="13" lengthAdjust="spacing" textLength="21" x="1984.42" y="1059.1045">usa</text></g><!--link BFS to Vertice--><g id="link_BFS_Vertice"><path codeLine="195" d="M1586.33,1029.4594 C1586.33,1151.2494 1586.33,1449.6094 1586.33,1449.6094 C1586.33,1449.6094 1216.68,1449.6094 1016.02,1449.6094 " fill="none" id="BFS-to-Vertice" style="stroke:#181818;stroke-width:1.0;stroke-dasharray:7.0,7.0;"/><polygon fill="#181818" points="1010.02,1449.6094,1019.02,1453.6094,1015.02,1449.6094,1019.02,1445.6094,1010.02,1449.6094" style="stroke:#181818;stroke-width:1.0;"/></g><!--link BFS to Aresta--><g id="link_BFS_Aresta"><path codeLine="196" d="M1505.67,1029.3094 C1505.67,1094.5594 1505.67,1199.6094 1505.67,1199.6094 C1505.67,1199.6094 1186.33,1199.6094 1015.72,1199.6094 " fill="none" id="BFS-to-Aresta" style="stroke:#181818;stroke-width:1.0;stroke-dasharray:7.0,7.0;"/><polygon fill="#181818" points="1009.72,1199.6094,1018.72,1203.6094,1014.72,1199.6094,1018.72,1195.6094,1009.72,1199.6094" style="stroke:#181818;stroke-width:1.0;"/></g><!--link DFS to Vertice--><g id="link_DFS_Vertice"><path codeLine="197" d="M1883.5,1029.2794 C1883.5,1153.0294 1883.5,1460.6094 1883.5,1460.6094 C1883.5,1460.6094 1282.8,1460.6094 1016.19,1460.6094 " fill="none" id="DFS-to-Vertice" style="stroke:#181818;stroke-width:1.0;stroke-dasharray:7.0,7.0;"/><polygon fill="#181818" points="1010.19,1460.6094,1019.19,1464.6094,1015.19,1460.6094,1019.19,1456.6094,1010.19,1460.6094" style="stroke:#181818;stroke-width:1.0;"/></g><!--link DFS to Aresta--><g id="link_DFS_Aresta"><path codeLine="198" d="M1823,1029.3294 C1823,1095.9594 1823,1204.6094 1823,1204.6094 C1823,1204.6094 1254.36,1204.6094 1015.86,1204.6094 " fill="none" id="DFS-to-Aresta" style="stroke:#181818;stroke-width:1.0;stroke-dasharray:7.0,7.0;"/><polygon fill="#181818" points="1009.86,1204.6094,1018.86,1208.6094,1014.86,1204.6094,1018.86,1200.6094,1009.86,1204.6094" style="stroke:#181818;stroke-width:1.0;"/></g><!--link AreasAfetadas to Vertice--><g id="link_AreasAfetadas_Vertice"><path codeLine="199" d="M2160.5,1029.1594 C2160.5,1155.0594 2160.5,1472.6094 2160.5,1472.6094 C2160.5,1472.6094 1335.87,1472.6094 1016.27,1472.6094 " fill="none" id="AreasAfetadas-to-Vertice" style="stroke:#181818;stroke-width:1.0;stroke-dasharray:7.0,7.0;"/><polygon fill="#181818" points="1010.27,1472.6094,1019.27,1476.6094,1015.27,1472.6094,1019.27,1468.6094,1010.27,1472.6094" style="stroke:#181818;stroke-width:1.0;"/></g><!--link AreasAfetadas to Aresta--><g id="link_AreasAfetadas_Aresta"><path codeLine="200" d="M2100,1029.2994 C2100,1097.2994 2100,1209.6094 2100,1209.6094 C2100,1209.6094 1303.89,1209.6094 1015.63,1209.6094 " fill="none" id="AreasAfetadas-to-Aresta" style="stroke:#181818;stroke-width:1.0;stroke-dasharray:7.0,7.0;"/><polygon fill="#181818" points="1009.63,1209.6094,1018.63,1213.6094,1014.63,1209.6094,1018.63,1205.6094,1009.63,1209.6094" style="stroke:#181818;stroke-width:1.0;"/></g><!--link CaminhoAlternativo to Vertice--><g id="link_CaminhoAlternativo_Vertice"><path codeLine="201" d="M2510.75,1029.4394 C2510.75,1157.7594 2510.75,1484.6094 2510.75,1484.6094 C2510.75,1484.6094 1394.64,1484.6094 1016.04,1484.6094 " fill="none" id="CaminhoAlternativo-to-Vertice" style="stroke:#181818;stroke-width:1.0;stroke-dasharray:7.0,7.0;"/><polygon fill="#181818" points="1010.04,1484.6094,1019.04,1488.6094,1015.04,1484.6094,1019.04,1480.6094,1010.04,1484.6094" style="stroke:#181818;stroke-width:1.0;"/></g><!--link CaminhoAlternativo to Aresta--><g id="link_CaminhoAlternativo_Aresta"><path codeLine="202" d="M2426,1029.2394 C2426,1098.5794 2426,1214.6094 2426,1214.6094 C2426,1214.6094 1355.69,1214.6094 1015.66,1214.6094 " fill="none" id="CaminhoAlternativo-to-Aresta" style="stroke:#181818;stroke-width:1.0;stroke-dasharray:7.0,7.0;"/><polygon fill="#181818" points="1009.66,1214.6094,1018.66,1218.6094,1014.66,1214.6094,1018.66,1210.6094,1009.66,1214.6094" style="stroke:#181818;stroke-width:1.0;"/></g><!--link FluxoMaximo to Vertice--><g id="link_FluxoMaximo_Vertice"><path codeLine="203" d="M2844,1029.1194 C2844,1159.2094 2844,1495.6094 2844,1495.6094 C2844,1495.6094 1445.47,1495.6094 1016.16,1495.6094 " fill="none" id="FluxoMaximo-to-Vertice" style="stroke:#181818;stroke-width:1.0;stroke-dasharray:7.0,7.0;"/><polygon fill="#181818" points="1010.16,1495.6094,1019.16,1499.6094,1015.16,1495.6094,1019.16,1491.6094,1010.16,1495.6094" style="stroke:#181818;stroke-width:1.0;"/></g><!--link FluxoMaximo to Aresta--><g id="link_FluxoMaximo_Aresta"><path codeLine="204" d="M2773,1029.1294 C2773,1099.7994 2773,1219.6094 2773,1219.6094 C2773,1219.6094 1404.78,1219.6094 1015.59,1219.6094 " fill="none" id="FluxoMaximo-to-Aresta" style="stroke:#181818;stroke-width:1.0;stroke-dasharray:7.0,7.0;"/><polygon fill="#181818" points="1009.59,1219.6094,1018.59,1223.6094,1014.59,1219.6094,1018.59,1215.6094,1009.59,1219.6094" style="stroke:#181818;stroke-width:1.0;"/></g><!--link Pontes to Vertice--><g id="link_Pontes_Vertice"><path codeLine="205" d="M1187,1330.8094 C1187,1376.8494 1187,1437.6094 1187,1437.6094 C1187,1437.6094 1099.06,1437.6094 1016.32,1437.6094 " fill="none" id="Pontes-to-Vertice" style="stroke:#181818;stroke-width:1.0;stroke-dasharray:7.0,7.0;"/><polygon fill="#181818" points="1010.32,1437.6094,1019.32,1441.6094,1015.32,1437.6094,1019.32,1433.6094,1010.32,1437.6094" style="stroke:#181818;stroke-width:1.0;"/></g><!--link Pontes to Aresta--><g id="link_Pontes_Aresta"><path codeLine="206" d="M1065.84,1280.6094 C1047.17,1280.6094 1034.04,1280.6094 1015.85,1280.6094 " fill="none" id="Pontes-to-Aresta" style="stroke:#181818;stroke-width:1.0;stroke-dasharray:7.0,7.0;"/><polygon fill="#181818" points="1009.85,1280.6094,1018.85,1284.6094,1014.85,1280.6094,1018.85,1276.6094,1009.85,1280.6094" style="stroke:#181818;stroke-width:1.0;"/></g><!--link PontosPrioritarios to Vertice--><g id="link_PontosPrioritarios_Vertice"><path codeLine="207" d="M3171.17,1046.6794 C3171.17,1189.5594 3171.17,1507.6094 3171.17,1507.6094 C3171.17,1507.6094 1491.21,1507.6094 1016.21,1507.6094 " fill="none" id="PontosPrioritarios-to-Vertice" style="stroke:#181818;stroke-width:1.0;stroke-dasharray:7.0,7.0;"/><polygon fill="#181818" points="1010.21,1507.6094,1019.21,1511.6094,1015.21,1507.6094,1019.21,1503.6094,1010.21,1507.6094" style="stroke:#181818;stroke-width:1.0;"/></g><!--link PontosPrioritarios to Aresta--><g id="link_PontosPrioritarios_Aresta"><path codeLine="208" d="M3060.83,1046.8094 C3060.83,1119.6094 3060.83,1224.6094 3060.83,1224.6094 C3060.83,1224.6094 1442.4,1224.6094 1015.67,1224.6094 " fill="none" id="PontosPrioritarios-to-Aresta" style="stroke:#181818;stroke-width:1.0;stroke-dasharray:7.0,7.0;"/><polygon fill="#181818" points="1009.67,1224.6094,1018.67,1228.6094,1014.67,1224.6094,1018.67,1220.6094,1009.67,1224.6094" style="stroke:#181818;stroke-width:1.0;"/></g><!--link App to VisualizadorRede--><g id="link_App_VisualizadorRede"><path codeLine="211" d="M3507,138.9694 C3507,158.8994 3507,180.5694 3507,208.1794 " fill="none" id="App-to-VisualizadorRede" style="stroke:#181818;stroke-width:1.0;stroke-dasharray:7.0,7.0;"/><polygon fill="#181818" points="3507,214.1794,3511,205.1794,3507,209.1794,3503,205.1794,3507,214.1794" style="stroke:#181818;stroke-width:1.0;"/><text fill="#000000" font-family="sans-serif" font-size="13" lengthAdjust="spacing" textLength="21" x="3485" y="173.0645">cria</text></g><!--reverse link VisualizadorRede to Grafo--><g id="link_VisualizadorRede_Grafo"><path codeLine="212" d="M3365.92,317.6094 C2821.67,317.6094 754.17,317.6094 754.17,317.6094 C754.17,317.6094 754.17,626.9394 754.17,822.3794 " fill="none" id="VisualizadorRede-backto-Grafo" style="stroke:#181818;stroke-width:1.0;"/><polygon fill="#181818" points="3377.92,317.6094,3371.92,313.6094,3365.92,317.6094,3371.92,321.6094,3377.92,317.6094" style="stroke:#181818;stroke-width:1.0;"/></g><!--reverse link VisualizadorRede to PintorConexoes--><g id="link_VisualizadorRede_PintorConexoes"><path codeLine="213" d="M3648.1,338.6094 C3689.65,338.6094 3713.17,338.6094 3713.17,338.6094 C3713.17,338.6094 3713.17,705.6794 3713.17,883.8294 " fill="none" id="VisualizadorRede-backto-PintorConexoes" style="stroke:#181818;stroke-width:1.0;"/><polygon fill="#181818" points="3636.1,338.6094,3642.1,342.6094,3648.1,338.6094,3642.1,334.6094,3636.1,338.6094" style="stroke:#181818;stroke-width:1.0;"/></g><!--reverse link VisualizadorRede to Modo--><g id="link_VisualizadorRede_Modo"><path codeLine="214" d="M3648.03,256.6094 C3735.02,256.6094 3822,256.6094 3822,256.6094 C3822,256.6094 3822,405.0094 3822,493.4094 " fill="none" id="VisualizadorRede-backto-Modo" style="stroke:#181818;stroke-width:1.0;"/><polygon fill="#181818" points="3636.03,256.6094,3642.03,260.6094,3648.03,256.6094,3642.03,252.6094,3636.03,256.6094" style="stroke:#181818;stroke-width:1.0;"/></g><!--link VisualizadorRede to TipoVertice--><g id="link_VisualizadorRede_TipoVertice"><path codeLine="215" d="M3636.05,297.6094 C3691.14,297.6094 3743,297.6094 3743,297.6094 C3743,297.6094 3743,1472.6094 3743,1472.6094 C3743,1472.6094 3727.51,1472.6094 3704.76,1472.6094 " fill="none" id="VisualizadorRede-to-TipoVertice" style="stroke:#181818;stroke-width:1.0;stroke-dasharray:7.0,7.0;"/><polygon fill="#181818" points="3698.76,1472.6094,3707.76,1476.6094,3703.76,1472.6094,3707.76,1468.6094,3698.76,1472.6094" style="stroke:#181818;stroke-width:1.0;"/></g><!--link VisualizadorRede to GerenciadorTestes--><g id="link_VisualizadorRede_GerenciadorTestes"><path codeLine="216" d="M3464,420.7794 C3464,440.7294 3464,455.3094 3464,474.2594 " fill="none" id="VisualizadorRede-to-GerenciadorTestes" style="stroke:#181818;stroke-width:1.0;stroke-dasharray:7.0,7.0;"/><polygon fill="#181818" points="3464,480.2594,3468,471.2594,3464,475.2594,3460,471.2594,3464,480.2594" style="stroke:#181818;stroke-width:1.0;"/><text fill="#000000" font-family="sans-serif" font-size="13" lengthAdjust="spacing" textLength="21" x="3442" y="447.0145">cria</text></g><!--link GerenciadorTestes to VisualizadorRede--><g id="link_GerenciadorTestes_VisualizadorRede"><path codeLine="220" d="M3550,480.3494 C3550,461.4394 3550,446.8994 3550,426.9894 " fill="none" id="GerenciadorTestes-to-VisualizadorRede" style="stroke:#181818;stroke-width:1.0;"/><polygon fill="#181818" points="3550,420.9894,3546,429.9894,3550,425.9894,3554,429.9894,3550,420.9894" style="stroke:#181818;stroke-width:1.0;"/></g><!--reverse link PintorConexoes to VerticeVis--><g id="link_PintorConexoes_VerticeVis"><path codeLine="217" d="M3546.5,1085.1794 C3546.5,1138.5394 3546.5,1190.8594 3546.5,1233.4794 " fill="none" id="PintorConexoes-backto-VerticeVis" style="stroke:#181818;stroke-width:1.0;"/><polygon fill="#181818" points="3546.5,1073.1794,3542.5,1079.1794,3546.5,1085.1794,3550.5,1079.1794,3546.5,1073.1794" style="stroke:#181818;stroke-width:1.0;"/><text fill="#000000" font-family="sans-serif" font-size="13" lengthAdjust="spacing" textLength="20" x="3529.3328" y="1222.6493">0..*</text></g><!--reverse link PintorConexoes to ConexaoVis--><g id="link_PintorConexoes_ConexaoVis"><path codeLine="218" d="M3684,1085.1794 C3684,1138.5394 3684,1190.8594 3684,1233.4794 " fill="none" id="PintorConexoes-backto-ConexaoVis" style="stroke:#181818;stroke-width:1.0;"/><polygon fill="#181818" points="3684,1073.1794,3680,1079.1794,3684,1085.1794,3688,1079.1794,3684,1073.1794" style="stroke:#181818;stroke-width:1.0;"/><text fill="#000000" font-family="sans-serif" font-size="13" lengthAdjust="spacing" textLength="20" x="3662.4688" y="1222.6493">0..*</text></g><!--link VerticeVis to TipoVertice--><g id="link_VerticeVis_TipoVertice"><path codeLine="219" d="M3595.17,1280.6094 C3605.43,1280.6094 3612.5,1280.6094 3612.5,1280.6094 C3612.5,1280.6094 3612.5,1362.5694 3612.5,1419.2594 " fill="none" id="VerticeVis-to-TipoVertice" style="stroke:#181818;stroke-width:1.0;"/><polygon fill="#181818" points="3612.5,1425.2594,3616.5,1416.2594,3612.5,1420.2594,3608.5,1416.2594,3612.5,1425.2594" style="stroke:#181818;stroke-width:1.0;"/></g><!--link GerenciadorTestes to Grafo--><g id="link_GerenciadorTestes_Grafo"><path codeLine="221" d="M3375.47,557.6094 C2843.79,557.6094 881.83,557.6094 881.83,557.6094 C881.83,557.6094 881.83,696.6294 881.83,816.4394 " fill="none" id="GerenciadorTestes-to-Grafo" style="stroke:#181818;stroke-width:1.0;"/><polygon fill="#181818" points="881.83,822.4394,885.83,813.4394,881.83,817.4394,877.83,813.4394,881.83,822.4394" style="stroke:#181818;stroke-width:1.0;"/></g><!--link GerenciadorTestes to PintorConexoes--><g id="link_GerenciadorTestes_PintorConexoes"><path codeLine="222" d="M3638.78,628.6094 C3666.91,628.6094 3688.33,628.6094 3688.33,628.6094 C3688.33,628.6094 3688.33,774.2394 3688.33,877.8894 " fill="none" id="GerenciadorTestes-to-PintorConexoes" style="stroke:#181818;stroke-width:1.0;"/><polygon fill="#181818" points="3688.33,883.8894,3692.33,874.8894,3688.33,878.8894,3684.33,874.8894,3688.33,883.8894" style="stroke:#181818;stroke-width:1.0;"/></g><!--link GerenciadorTestes to ModeloTesteAutomatico--><g id="link_GerenciadorTestes_ModeloTesteAutomatico"><path codeLine="223" d="M3507,635.0994 C3507,655.9594 3507,671.4594 3507,688.5694 " fill="none" id="GerenciadorTestes-to-ModeloTesteAutomatico" style="stroke:#181818;stroke-width:1.0;stroke-dasharray:7.0,7.0;"/><polygon fill="#181818" points="3507,694.5694,3511,685.5694,3507,689.5694,3503,685.5694,3507,694.5694" style="stroke:#181818;stroke-width:1.0;"/><text fill="#000000" font-family="sans-serif" font-size="13" lengthAdjust="spacing" textLength="38" x="3468" y="661.3345">aciona</text></g><!--link ModeloTesteAutomatico to VisualizadorRede--><g id="link_ModeloTesteAutomatico_VisualizadorRede"><path codeLine="224" d="M3651,694.5094 C3651,606.6894 3651,379.6094 3651,379.6094 C3651,379.6094 3651.28,379.6094 3642.13,379.6094 " fill="none" id="ModeloTesteAutomatico-to-VisualizadorRede" style="stroke:#181818;stroke-width:1.0;stroke-dasharray:7.0,7.0;"/><polygon fill="#181818" points="3636.13,379.6094,3645.13,383.6094,3641.13,379.6094,3645.13,375.6094,3636.13,379.6094" style="stroke:#181818;stroke-width:1.0;"/></g><!--link ModeloTesteAutomatico to Grafo--><g id="link_ModeloTesteAutomatico_Grafo"><path codeLine="225" d="M3389.75,762.7694 C3389.75,799.7794 3389.75,853.6094 3389.75,853.6094 C3389.75,853.6094 1612.25,853.6094 1015.72,853.6094 " fill="none" id="ModeloTesteAutomatico-to-Grafo" style="stroke:#181818;stroke-width:1.0;stroke-dasharray:7.0,7.0;"/><polygon fill="#181818" points="1009.72,853.6094,1018.72,857.6094,1014.72,853.6094,1018.72,849.6094,1009.72,853.6094" style="stroke:#181818;stroke-width:1.0;"/></g><!--link ModeloTesteAutomatico to PintorConexoes--><g id="link_ModeloTesteAutomatico_PintorConexoes"><path codeLine="226" d="M3580.75,762.8494 C3580.75,794.0094 3580.75,835.4894 3580.75,877.9894 " fill="none" id="ModeloTesteAutomatico-to-PintorConexoes" style="stroke:#181818;stroke-width:1.0;stroke-dasharray:7.0,7.0;"/><polygon fill="#181818" points="3580.75,883.9894,3584.75,874.9894,3580.75,878.9894,3576.75,874.9894,3580.75,883.9894" style="stroke:#181818;stroke-width:1.0;"/></g><!--link Grafo to GMN73--><g id="link_Grafo_GMN73"><path d="M626.06,1090.6094 C431.52,1090.6094 159,1090.6094 159,1090.6094 C159,1090.6094 159,1208.5994 159,1258.3694 " fill="none" id="Grafo-GMN73" style="stroke:#181818;stroke-width:1.0;stroke-dasharray:7.0,7.0;"/></g><!--SRC=[nLXhRjj64FxFKopS7v6RM4Y3eaK4mm2ZXwF2SWJBDGeKHJ4Ir_8cv2wpktISj0PwYDwWFm8Kw2byavwaim-IouTKe6YGNn9dPeVVl6VvY4mOR2LaG19ADYaeHHL91CcbU4sr81SqeHCwvLHk6GoZHsG94iYMIf2am5CiWotDHWJMIAPAKmBoRS5k1Q6P5Q1tcdBry8SWonIu_dvnPjHVhSXO91JrYO8KYex8QxW5SlGQrUP6hiZIeNb8FBoVFRPXZfmeKcyOpn59HjQmURELek39MAH2adStJDE0hsuW4UyOtv9hI5N8iHfZhILR5vhEDuAls0TAdWOYAUDKlyyf4LBVYEY6ePDebklt9AFPcaeLHPhfb3QyEFPU_FkttycAPKMA0AHX65-QN-_DACeHExgF7Cmvsp18sGTu-8YkEY1Vp6QpP-Cn-IKY3YU9yzm-4V8u0yO78BTgH5Q8dcz__EbmH6u5Iv1_7zq7YZ4Yij25X5C9rqRlvFaqddqRw3smdEFB-VBLoG41HUopVzNHBPMQRJ0y2yYjp1DovKZkn8aJ0ualWX69fOJtPqpfuzXI6aBNWckwHBmRbaCw8eRdE4MgMIQyuZX1NmYEJWj47aEIUFw09OvHszpWnuKMOy7fHgEAmN0uRCivQ0CXcSrSPrM2DCP5-PX2jaxG8CPruxYacK2Vx8MYg5uAh8HOOnbK8ay8cESHMGkHKk2D8-jhDM0c1qIbpthHki-99Fyk4fykh5MC6_S6SJriF3dXwxIu4mkuGyVlSyMXzO4xGZdMYCRANvf8ga49eHlhnnl86ByHSQgfvDPm7ua6PipKAWtFHH9ceNaiav2BZ8RfGjNRWaeJdlgGuoHCKgPx64tVEunRgbs83biCLJ9sHIp4tIW72zrJoch5Z1lK5ZJ2dcCnw3bNU60WWNq8SNS5Nyc4PdlaGbHXI2meHoWzMeoQPUoBlPSQbC9UNvvPkK6OCF-FXx6ONnTSYmbJzZUmgiqgxSk1XIqhi4O2VnEovfZ9ECtAj9KCPAbqG5EQKVpJ4xcg5Bf2TSygE9C3ACjgNKdKhcWsQqYtM8aw4meRzVJPxEdaUTYeNynMWUduz1-RzAwQfNTqKsWqQL-RkQ_nJ1fu9fyT3we05LzJxFkWcgbVqpyLHZlS_XNYkDCMmsJkC3yLsFtzVXVuMJqn0jG1zVF0TTqcmEccKm3H4JuLkbrJi8L8A5nzJ7a3_hJHDPd_CzBScZz6xMm3UwTsRjOMjG2cPXAspEoZYL03BVBpSXLgxnmRM0jxuapmRP_i7hVWlXAMwUcY79cLRxq752vFLetQhJLifBTC5NQRte3TfSVJhoVV1AtqgkJZOcwNSk_m3F8hHjzHEIBV_R0e7_n8GPk4cGtqJb3Sl9UDPoUpDKkMKLZkMsuzzt7AS6R7kZ2xsGB_Eg9cURduhd2Kr9jlJIytpmsa6xnCI7zz63G64exQq_BjWyE-znkH9cWZrsE64QoCDp9DNzZHJ7cHMIkywyxZg-bfV67_Zo_cySNFLzEBo_buQYbdyzEQihAaY-dY5H8QOl7PvVJY72LdyTdBkBa5D76sAaIv4d7MLaM2KMvKYFAvOvM0gDaOTkX671StTn6fjltkNS8B-1j5cz-wBBWbq85iNnYcojnMoiYs5U4wmtMJUby68KWKxvNLzo-cgyju7BirPFbgTUdyEuvNSQC2QqULbHTYh7e2jWtCo5Cgy5g3JKJu9SwaRZjHQzsrbyjWbMqyq7vKDVEGc5CbwhvUQJob4jSkPehsqdnfg1IZ99NNi0alb-qI3mgqjpXTUVVNWzq_mBtKt2up7CuRqQo_icLPeIML2lF2lNxGoeajvY0kZZD8Rs01756Uu_pCeHjVPpPM6Kr5w-Na-BZGsA3r-vEJCdQ_O0uXxvxWQcgk_SmQ_W8K7LYxdn1dv1DIEQprsU0HUKbnGNxu28IYbip4tdwG88dzkEC-9PZlDud87lxYJ4JsddRywz5HcKoH-txm9L8EdWw7NnvKzw4HDl4CFb0ENHb_FGb4FENew8GSV1KgANQpReq9JZTWepKc289stk3cHymN7OB3jTwoFOpXyCHkqoDSBLAwXO0ywIStDyeUWPvLhaSgN9rws7vjsS5fhGnzA76WLcJpO96rRqpeK0LHZyO612E3lXqRHrOE9Ed3dmG8ZdoH2knR9Z5ifaN6dUPycHFbiujSD6cn9qrsqxsXO9VZZ_GuF3otW-qFXt48JxNfNjmx9PGCI85GZqF30priVnWzFIzB52iHSi4mer56sxuNcM-1LbjxZnaHSuEDEdHJQJOn-bcjfjShOrUM3iUW22T0hq2tSNkShQ7UxHceRezGFMAYO9APjX12whxTI7JcGx-OSre_h-Mrhf2nlRzxOv-pcqFKp-wBxHvH1t8tlmKqua9JiXOQXOYuziU9RvpSj7kMvUwpHgjZ4lE1JOFXq97PG59g11ZE6p2s4-hx3J4V_d4YskanZ2XFY7bhz0y0]--></g></svg>